<svg width="30" height="30" viewBox="0 0 30 30" fill="none" xmlns="http://www.w3.org/2000/svg">
<path d="M15.0127 1.42798C15.502 1.44378 16.2274 1.62707 16.8799 1.96118C17.525 2.29152 18.1858 2.81421 18.417 3.56177C18.7419 4.6128 18.814 5.50239 18.7988 6.01001C18.9067 6.08221 19.0227 6.1809 19.1211 6.32349C19.2557 6.51871 19.3376 6.7668 19.3574 7.08032C19.4215 8.09748 19.1675 8.66285 18.8271 9.05396C18.6799 9.22311 18.4971 9.37519 18.4092 9.45923C18.3037 9.56004 18.2708 9.61348 18.2578 9.66235C18.1069 10.2325 18.0498 10.5939 18.1719 11.2971C18.1858 11.3761 18.2586 11.5162 18.4473 11.7102C18.6276 11.8955 18.8774 12.0932 19.168 12.2883C19.7485 12.6781 20.4499 13.0314 20.9775 13.2424C22.045 13.6694 23.0303 13.8941 23.7666 14.012C24.1573 14.0745 24.7414 14.2611 25.2646 14.6262C25.793 14.995 26.282 15.5634 26.4121 16.3831C26.5553 17.285 26.5542 18.2824 26.5195 19.1008C26.5021 19.5119 26.4756 19.8827 26.4541 20.177C26.4318 20.4815 26.417 20.6826 26.417 20.7815C26.417 20.8214 26.4278 20.8734 26.4687 20.9573C26.5128 21.0473 26.5763 21.1448 26.667 21.2864C26.8426 21.5604 27.0736 21.9279 27.2266 22.4631C27.2887 22.6806 27.3458 23.0426 27.3984 23.4622C27.4521 23.8903 27.5045 24.4048 27.5527 24.9436C27.6493 26.0217 27.7313 27.2077 27.7803 28.0159C27.7985 28.3187 27.5569 28.5715 27.2559 28.5715H23.9541C23.7264 28.5715 23.5242 28.4249 23.4541 28.2083L22.2988 24.6379L20.8799 28.2395C20.8008 28.44 20.6071 28.5715 20.3916 28.5715H9.61034C9.39477 28.5715 9.20118 28.44 9.12206 28.2395L7.70312 24.6379L6.54784 28.2083C6.47777 28.4249 6.2755 28.5715 6.04784 28.5715H2.74609C2.44497 28.5715 2.20343 28.3187 2.22167 28.0159C2.27065 27.2077 2.35261 26.0217 2.44921 24.9436C2.49749 24.4048 2.5498 23.8903 2.60351 23.4622C2.65615 23.0426 2.71325 22.6806 2.77538 22.4631C2.92838 21.9279 3.1593 21.5604 3.33495 21.2864C3.42569 21.1448 3.48919 21.0473 3.5332 20.9573C3.57415 20.8734 3.58493 20.8214 3.58495 20.7815C3.58495 20.6826 3.5701 20.4815 3.54784 20.177C3.52633 19.8827 3.49984 19.5119 3.48242 19.1008C3.44775 18.2824 3.44666 17.285 3.58984 16.3831C3.71997 15.5634 4.20889 14.995 4.7373 14.6262C5.26057 14.2611 5.84467 14.0745 6.23534 14.012C6.97169 13.8941 7.95694 13.6694 9.02441 13.2424C9.55203 13.0314 10.2535 12.6781 10.834 12.2883C11.1246 12.0932 11.3744 11.8955 11.5547 11.7102C11.7434 11.5162 11.8162 11.3761 11.8301 11.2971C11.9521 10.5939 11.8951 10.2325 11.7441 9.66235C11.7312 9.61348 11.6982 9.56003 11.5928 9.45923C11.5049 9.3752 11.322 9.22312 11.1748 9.05396C10.8345 8.66285 10.5804 8.09752 10.6445 7.08032C10.6643 6.76678 10.7462 6.51872 10.8809 6.32349C10.9793 6.1809 11.0952 6.08221 11.2031 6.01001C11.188 5.50238 11.2601 4.61282 11.585 3.56177C11.8162 2.8142 12.477 2.29152 13.1221 1.96118C13.7746 1.62707 14.4999 1.44377 14.9893 1.42798L15.001 1.80298L15.0127 1.42798ZM15.001 2.17798C14.6374 2.19248 14.0276 2.34051 13.4639 2.62915C12.8868 2.92471 12.4442 3.32288 12.3018 3.78345C12.0135 4.71581 11.9453 5.49272 11.9502 5.92505L11.957 6.08911C11.9713 6.29871 11.8619 6.49602 11.6807 6.59692C11.5994 6.64215 11.5416 6.68623 11.498 6.74927C11.4551 6.81156 11.4056 6.92164 11.3926 7.1272C11.339 7.97663 11.5484 8.33915 11.7412 8.56079C11.8606 8.69795 11.9618 8.77428 12.1113 8.91724C12.2432 9.04336 12.4013 9.21627 12.4687 9.47095C12.6394 10.1156 12.7145 10.5889 12.5693 11.425C12.5162 11.731 12.3126 12.0066 12.0918 12.2336C11.862 12.4698 11.5663 12.7003 11.2519 12.9114C10.6227 13.3338 9.87342 13.7104 9.30273 13.9387C8.17306 14.3906 7.13204 14.6276 6.35351 14.7522C6.05761 14.7996 5.58419 14.9504 5.16699 15.2415C4.75485 15.529 4.41976 15.936 4.33007 16.5002C4.19862 17.3284 4.19746 18.2676 4.23144 19.0696C4.24835 19.4687 4.27449 19.8295 4.29589 20.1223C4.31655 20.4049 4.33495 20.6469 4.33495 20.7815C4.33493 20.9747 4.27739 21.1423 4.20702 21.2864C4.13951 21.4245 4.04766 21.5645 3.96679 21.6907C3.79927 21.952 3.61867 22.2439 3.49706 22.6692C3.45295 22.8236 3.40087 23.1309 3.34765 23.5549C3.2955 23.9705 3.24417 24.4756 3.19628 25.01C3.10964 25.977 3.03589 27.0339 2.98632 27.8215H5.88476L7.18261 23.8108L7.21679 23.7278C7.40145 23.3671 7.92425 23.3508 8.13085 23.6995L8.16992 23.7795L9.76269 27.8215H20.2393L21.832 23.7795L21.8711 23.6995C22.0777 23.3508 22.6005 23.3671 22.7851 23.7278L22.8193 23.8108L24.1172 27.8215H27.0156C26.966 27.0339 26.8923 25.977 26.8057 25.01C26.7578 24.4756 26.7064 23.9705 26.6543 23.5549C26.6011 23.1309 26.549 22.8236 26.5049 22.6692C26.3833 22.2439 26.2027 21.952 26.0351 21.6907C25.9543 21.5645 25.8624 21.4245 25.7949 21.2864C25.7245 21.1423 25.667 20.9747 25.667 20.7815C25.667 20.6469 25.6854 20.4049 25.706 20.1223C25.7275 19.8295 25.7536 19.4687 25.7705 19.0696C25.8045 18.2677 25.8033 17.3284 25.6719 16.5002C25.5822 15.936 25.2471 15.529 24.835 15.2415C24.4178 14.9504 23.9443 14.7996 23.6484 14.7522C22.8699 14.6276 21.8289 14.3906 20.6992 13.9387C20.1285 13.7104 19.3792 13.3338 18.75 12.9114C18.4357 12.7003 18.14 12.4698 17.9101 12.2336C17.6893 12.0066 17.4857 11.731 17.4326 11.425C17.2875 10.5888 17.3625 10.1156 17.5332 9.47095C17.6006 9.21626 17.7587 9.04336 17.8906 8.91724C18.0401 8.77429 18.1414 8.69796 18.2607 8.56079C18.4536 8.33914 18.6629 7.97657 18.6094 7.1272C18.5964 6.92168 18.5469 6.81156 18.5039 6.74927C18.4604 6.68623 18.4025 6.64215 18.3213 6.59692C18.14 6.49603 18.0307 6.29873 18.0449 6.08911L18.0518 5.92505C18.0567 5.49273 17.9884 4.7158 17.7002 3.78345C17.5577 3.32289 17.1152 2.92471 16.5381 2.62915C15.9744 2.34053 15.3646 2.19252 15.001 2.17798Z" fill="#6A6765"/>
<path d="M15.4572 24.8639L15.457 10.4291C15.457 10.252 15.7042 10.2219 15.7483 10.3934C16.0644 11.6228 16.5779 13.3163 17.2429 13.9813C18.0556 14.794 18.8434 15.0106 19.2562 15.0666C19.3785 15.0831 19.4608 15.2317 19.3961 15.3367C19.0275 15.935 18.1019 17.4884 17.5843 18.8134C17.1426 19.9441 16.2863 23.063 15.7335 24.9064C15.6845 25.0695 15.4572 25.0342 15.4572 24.8639Z" fill="#EC5D18"/>
<path d="M14.5438 24.8639L14.5439 10.4291C14.5439 10.252 14.2968 10.2219 14.2527 10.3934C13.9365 11.6228 13.4231 13.3163 12.7581 13.9813C11.9454 14.794 11.1576 15.0106 10.7447 15.0666C10.6225 15.0831 10.5402 15.2317 10.6049 15.3367C10.9735 15.935 11.8991 17.4884 12.4167 18.8134C12.8583 19.9441 13.7147 23.063 14.2675 24.9064C14.3164 25.0695 14.5438 25.0342 14.5438 24.8639Z" fill="#EC5D18"/>
<path d="M17.043 22.1245C17.5735 20.1352 18.0234 19.2686 18.2435 19.0042C18.2855 18.9538 18.3572 18.9547 18.4089 18.995C18.8729 19.3568 19.7207 20.0244 19.9933 20.2643C20.262 20.5008 21.2309 21.145 21.7851 21.5049C21.8549 21.5503 21.8746 21.6433 21.8291 21.7131C21.5183 22.1906 20.9256 23.1151 20.5019 23.8249C20.0577 24.5689 19.4456 25.9642 19.1594 26.6536C19.1361 26.7098 19.0817 26.746 19.0208 26.746H16.2376C16.1476 26.746 16.0793 26.6683 16.092 26.5791C16.1644 26.074 16.4223 24.4523 17.043 22.1245Z" fill="#EC5D18"/>
<path d="M12.9579 22.1245C12.4275 20.1352 11.9776 19.2686 11.7574 19.0042C11.7155 18.9538 11.6438 18.9547 11.592 18.995C11.128 19.3568 10.2803 20.0244 10.0077 20.2643C9.73894 20.5008 8.77008 21.145 8.21586 21.5049C8.14603 21.5503 8.12641 21.6433 8.17183 21.7131C8.48267 22.1906 9.07533 23.1151 9.49907 23.8249C9.94325 24.5689 10.5553 25.9642 10.8416 26.6536C10.8649 26.7098 10.9193 26.746 10.9802 26.746H13.7633C13.8534 26.746 13.9217 26.6683 13.909 26.5791C13.8366 26.074 13.5787 24.4523 12.9579 22.1245Z" fill="#EC5D18"/>
<path d="M20.084 15.7499L18.772 17.9112C18.6961 18.0362 18.7211 18.1975 18.8305 18.2945C19.102 18.5352 19.5768 18.9623 20.1844 19.5251C21.1757 20.4432 22.5244 20.6057 22.5651 20.6057H23.6914C23.9399 20.6057 24.1414 20.4043 24.1414 20.1557V18.7629C24.1414 18.7296 24.136 18.6968 24.1248 18.6654C23.9021 18.0399 23.3064 16.7218 22.5651 16.0881C21.8925 15.5133 20.9204 15.4807 20.3749 15.5521C20.2524 15.5681 20.1481 15.6442 20.084 15.7499Z" fill="#EC5D18"/>
<path d="M9.91701 15.7499L11.229 17.9112C11.3049 18.0362 11.2799 18.1975 11.1705 18.2945C10.8989 18.5352 10.4242 18.9623 9.81655 19.5251C8.82526 20.4432 7.47653 20.6057 7.4359 20.6057H6.30957C6.06104 20.6057 5.85962 20.4043 5.85962 20.1557V18.7629C5.85962 18.7296 5.86498 18.6968 5.87616 18.6654C6.0989 18.0399 6.69457 16.7218 7.4359 16.0881C8.10847 15.5133 9.08054 15.4807 9.62605 15.5521C9.7486 15.5681 9.85288 15.6442 9.91701 15.7499Z" fill="#EC5D18"/>
</svg>
