<svg width="24" height="24" viewBox="0 0 24 24" fill="none" xmlns="http://www.w3.org/2000/svg">
<path d="M12.0105 1.14246C12.402 1.15516 12.9818 1.30198 13.5037 1.56921C14.0198 1.8335 14.5483 2.25145 14.7332 2.84949C14.993 3.69002 15.0499 4.40132 15.0379 4.8075C15.1244 4.86527 15.2177 4.94413 15.2967 5.05847C15.4044 5.21463 15.4703 5.41319 15.4861 5.66394C15.5375 6.47764 15.3335 6.93014 15.0613 7.24304C14.9437 7.3782 14.7977 7.50003 14.7273 7.56726C14.6433 7.64758 14.6167 7.6904 14.6063 7.72937C14.4855 8.18543 14.4403 8.47457 14.5379 9.03699C14.5489 9.10011 14.6065 9.21259 14.7576 9.36804C14.9019 9.51628 15.1014 9.67485 15.3338 9.83093C15.7982 10.1428 16.3599 10.4248 16.782 10.5936C17.636 10.9352 18.4244 11.1146 19.0135 11.2089C19.326 11.2589 19.7932 11.409 20.2117 11.701C20.6344 11.996 21.0256 12.4507 21.1297 13.1063C21.2442 13.828 21.2434 14.6263 21.2156 15.2811C21.2017 15.6099 21.1811 15.9061 21.1639 16.1415C21.1461 16.3849 21.1336 16.5457 21.1336 16.6249C21.1336 16.6569 21.1428 16.6983 21.1756 16.7655C21.2108 16.8375 21.2602 16.9159 21.3328 17.0292C21.4734 17.2484 21.6586 17.5422 21.7811 17.9706C21.8308 18.1445 21.8766 18.4338 21.9188 18.7694C21.9617 19.1119 22.0032 19.5239 22.0418 19.955C22.1191 20.8172 22.1852 21.7655 22.2244 22.412C22.2391 22.6543 22.0453 22.8572 21.8045 22.8573H19.1629C18.9808 22.8572 18.8195 22.7395 18.7635 22.5663L17.8387 19.7098L16.7039 22.5917C16.6406 22.7519 16.4856 22.8572 16.3133 22.8573H7.68828C7.51588 22.8573 7.36099 22.752 7.29766 22.5917L6.16289 19.7098L5.23809 22.5663C5.18206 22.7395 5.02065 22.8571 4.83867 22.8573H2.19707C1.95613 22.8573 1.76247 22.6543 1.77715 22.412C1.81633 21.7655 1.88252 20.8172 1.95977 19.955C1.99839 19.5239 2.03984 19.1119 2.08281 18.7694C2.12492 18.4339 2.17081 18.1445 2.22051 17.9706C2.34295 17.5422 2.52821 17.2484 2.66875 17.0292C2.74129 16.916 2.79079 16.8375 2.82598 16.7655C2.85875 16.6984 2.86797 16.6568 2.86797 16.6249C2.86795 16.5457 2.85549 16.3849 2.8377 16.1415C2.82049 15.9061 2.79987 15.6099 2.78594 15.2811C2.7582 14.6263 2.75732 13.828 2.87188 13.1063C2.976 12.4507 3.36717 11.996 3.78985 11.701C4.20838 11.409 4.67558 11.2589 4.98809 11.2089C5.57715 11.1146 6.36565 10.9352 7.21953 10.5936C7.64167 10.4247 8.20344 10.1427 8.66778 9.83093C8.90016 9.67486 9.09975 9.51626 9.24395 9.36804C9.39499 9.21268 9.45272 9.10009 9.46367 9.03699C9.56126 8.47462 9.51605 8.18541 9.39531 7.72937C9.38489 7.69038 9.35826 7.64761 9.27422 7.56726C9.20394 7.50008 9.05797 7.37828 8.94024 7.24304C8.66796 6.93014 8.4641 6.47778 8.51543 5.66394C8.53127 5.41318 8.59718 5.21463 8.70489 5.05847C8.78385 4.94416 8.87716 4.86525 8.96367 4.8075C8.95162 4.40132 9.00854 3.69003 9.26836 2.84949C9.45336 2.25146 9.98179 1.83347 10.4979 1.56921C11.0198 1.302 11.5996 1.1551 11.991 1.14246L12.0008 1.44226L12.0105 1.14246ZM11.9998 1.74207C11.7089 1.75388 11.2218 1.87277 10.7713 2.10339C10.3096 2.33985 9.95557 2.65873 9.8416 3.02722C9.6441 3.66626 9.57532 4.21385 9.56231 4.57507L9.56524 4.87097C9.57673 5.03867 9.48949 5.19644 9.34453 5.27722C9.27969 5.31332 9.23383 5.34906 9.19903 5.39929C9.16465 5.44913 9.12445 5.53757 9.11406 5.70203C9.07129 6.381 9.23821 6.67119 9.39239 6.84851C9.48786 6.95821 9.56964 7.01931 9.68926 7.13367C9.79471 7.23452 9.92145 7.37251 9.97539 7.57605C10.1119 8.09181 10.1715 8.47074 10.0555 9.13953C10.013 9.3842 9.85027 9.6054 9.67364 9.78699C9.48982 9.9759 9.25317 10.1601 9.00176 10.329C8.4984 10.667 7.89877 10.9686 7.44219 11.1512C6.53857 11.5127 5.7056 11.702 5.08281 11.8016C4.84611 11.8395 4.46734 11.9604 4.1336 12.1932C3.80394 12.4233 3.53645 12.7487 3.46465 13.2001C3.35949 13.8626 3.35837 14.6142 3.38555 15.2557C3.39907 15.5748 3.41922 15.8634 3.43633 16.0975C3.45285 16.3235 3.46756 16.5172 3.46758 16.6249C3.46758 16.7796 3.42139 16.9138 3.36504 17.0292C3.31107 17.1396 3.23828 17.2516 3.17364 17.3524C3.03958 17.5615 2.89494 17.7952 2.79766 18.1356C2.76236 18.2592 2.7211 18.5052 2.67852 18.8446C2.63681 19.1771 2.59573 19.5812 2.55742 20.0087C2.48811 20.7823 2.4291 21.6277 2.38946 22.2577H4.70684L5.7459 19.0487L5.77324 18.9823C5.92098 18.6936 6.33951 18.6806 6.50469 18.9598L6.53594 19.0233L7.81035 22.2577H16.1912L17.4656 19.0233L17.4969 18.9598C17.6622 18.6807 18.0807 18.6935 18.2283 18.9823L18.2557 19.0487L19.2947 22.2577H21.6121C21.5725 21.6277 21.5135 20.7823 21.4441 20.0087C21.4058 19.5812 21.3648 19.1771 21.323 18.8446C21.2805 18.5052 21.2392 18.2592 21.2039 18.1356C21.1066 17.7952 20.962 17.5616 20.8279 17.3524C20.7633 17.2515 20.6905 17.1396 20.6365 17.0292C20.5801 16.9138 20.534 16.7796 20.534 16.6249C20.534 16.5172 20.5487 16.3235 20.5652 16.0975C20.5824 15.8634 20.6025 15.5748 20.616 15.2557C20.6432 14.6142 20.6421 13.8626 20.5369 13.2001C20.4651 12.7488 20.1976 12.4233 19.868 12.1932C19.5343 11.9604 19.1555 11.8396 18.9188 11.8016C18.296 11.702 17.463 11.5127 16.5594 11.1512C16.1028 10.9686 15.5032 10.667 14.9998 10.329C14.7484 10.1601 14.5118 9.97592 14.3279 9.78699C14.1512 9.60537 13.9886 9.38427 13.9461 9.13953C13.83 8.47069 13.8896 8.09183 14.0262 7.57605C14.0801 7.37252 14.2069 7.23451 14.3123 7.13367C14.4319 7.01939 14.5137 6.95821 14.6092 6.84851C14.7633 6.67118 14.9303 6.38079 14.8875 5.70203C14.8771 5.53761 14.8369 5.44914 14.8025 5.39929C14.7677 5.34901 14.7219 5.31333 14.657 5.27722C14.5119 5.19647 14.4248 5.03875 14.4363 4.87097L14.4393 4.57507C14.4263 4.21385 14.3575 3.66627 14.16 3.02722C14.046 2.65872 13.692 2.33987 13.2303 2.10339C12.779 1.8723 12.2906 1.75354 11.9998 1.74207Z" fill="#6A6765"/>
<path d="M12.3664 19.8912L12.3662 8.34338C12.3662 8.20169 12.5639 8.17758 12.5992 8.31481C12.8521 9.29833 13.2629 10.6531 13.7949 11.1851C14.445 11.8353 15.0753 12.0085 15.4056 12.0533C15.5034 12.0666 15.5692 12.1854 15.5175 12.2694C15.2226 12.748 14.4821 13.9908 14.068 15.0508C13.7147 15.9554 13.0296 18.4505 12.5874 19.9252C12.5482 20.0557 12.3664 20.0275 12.3664 19.8912Z" fill="#EC5D18"/>
<path d="M11.6346 19.8912L11.6348 8.34338C11.6348 8.20169 11.4371 8.17758 11.4018 8.31481C11.1488 9.29833 10.7381 10.6531 10.2061 11.1851C9.55593 11.8353 8.92567 12.0085 8.5954 12.0533C8.49762 12.0666 8.43174 12.1854 8.4835 12.2694C8.7784 12.748 9.51888 13.9908 9.93294 15.0508C10.2863 15.9554 10.9714 18.4505 11.4136 19.9252C11.4528 20.0557 11.6346 20.0275 11.6346 19.8912Z" fill="#EC5D18"/>
<path d="M13.6344 17.6995C14.0588 16.1081 14.4187 15.4148 14.5948 15.2033C14.6284 15.1629 14.6858 15.1637 14.7272 15.1959C15.0984 15.4854 15.7765 16.0195 15.9946 16.2114C16.2096 16.4006 16.9847 16.9159 17.4281 17.2039C17.484 17.2401 17.4997 17.3146 17.4633 17.3704C17.2146 17.7524 16.7405 18.492 16.4015 19.0598C16.0462 19.655 15.5565 20.7713 15.3275 21.3228C15.3089 21.3678 15.2653 21.3967 15.2166 21.3967H12.9901C12.9181 21.3967 12.8634 21.3345 12.8736 21.2632C12.9315 20.8592 13.1379 19.5617 13.6344 17.6995Z" fill="#EC5D18"/>
<path d="M10.3665 17.6995C9.94216 16.1081 9.58224 15.4148 9.40614 15.2033C9.37256 15.1629 9.31522 15.1637 9.27383 15.1959C8.90262 15.4854 8.22444 16.0195 8.00638 16.2114C7.79135 16.4006 7.01626 16.9159 6.57288 17.2039C6.51702 17.2401 6.50132 17.3146 6.53766 17.3704C6.78633 17.7524 7.26046 18.492 7.59945 19.0598C7.95479 19.655 8.44447 20.7713 8.67344 21.3228C8.6921 21.3678 8.73565 21.3967 8.78433 21.3967H11.0109C11.0829 21.3967 11.1376 21.3345 11.1274 21.2632C11.0695 20.8592 10.8631 19.5617 10.3665 17.6995Z" fill="#EC5D18"/>
<path d="M16.0678 12.5999L15.0182 14.3289C14.9575 14.4289 14.9774 14.5579 15.065 14.6355C15.2822 14.8281 15.662 15.1698 16.1481 15.62C16.9412 16.3545 18.0201 16.4845 18.0526 16.4845H18.9537C19.1525 16.4845 19.3137 16.3234 19.3137 16.1245V15.0103C19.3137 14.9836 19.3094 14.9574 19.3004 14.9323C19.1223 14.4319 18.6457 13.3774 18.0526 12.8705C17.5146 12.4106 16.7369 12.3845 16.3005 12.4416C16.2025 12.4544 16.1191 12.5153 16.0678 12.5999Z" fill="#EC5D18"/>
<path d="M7.93322 12.5999L8.98281 14.3289C9.0435 14.4289 9.02354 14.5579 8.93602 14.6355C8.71875 14.8281 8.33898 15.1698 7.85285 15.62C7.05982 16.3545 5.98083 16.4845 5.94833 16.4845H5.04727C4.84844 16.4845 4.68731 16.3234 4.68731 16.1245V15.0103C4.68731 14.9836 4.69159 14.9574 4.70054 14.9323C4.87873 14.4319 5.35527 13.3774 5.94833 12.8705C6.48638 12.4106 7.26404 12.3845 7.70045 12.4416C7.79849 12.4544 7.88191 12.5153 7.93322 12.5999Z" fill="#EC5D18"/>
</svg>
