<svg width="24" height="24" viewBox="0 0 24 24" fill="none" xmlns="http://www.w3.org/2000/svg">
<path d="M12.0101 1.14246C12.4015 1.1551 12.9814 1.30173 13.5034 1.56902C14.0195 1.83333 14.548 2.25157 14.7329 2.84976C14.9929 3.69087 15.0513 4.40242 15.0391 4.80843C15.1253 4.86618 15.2178 4.94509 15.2964 5.05898C15.4041 5.21515 15.4698 5.41323 15.4856 5.66402C15.5369 6.47782 15.3332 6.92987 15.0609 7.24277C14.9432 7.37811 14.797 7.49992 14.7267 7.56714C14.6423 7.64781 14.6163 7.69081 14.6059 7.72992C14.4852 8.18599 14.4395 8.47485 14.5371 9.03738C14.5481 9.10057 14.6062 9.21301 14.7575 9.36855C14.9018 9.5168 15.1013 9.67441 15.3337 9.8305C15.7983 10.1424 16.3597 10.425 16.7818 10.5939C17.6358 10.9355 18.4238 11.1151 19.0128 11.2093C19.3254 11.2593 19.7925 11.409 20.2111 11.7012C20.6338 11.9962 21.0253 12.4507 21.1294 13.1065C21.2439 13.8282 21.243 14.6262 21.2153 15.281C21.2013 15.6098 21.1804 15.9061 21.1632 16.1415C21.1454 16.3851 21.1331 16.5459 21.1331 16.625C21.1331 16.657 21.1419 16.6987 21.1747 16.7659C21.2099 16.8379 21.2602 16.9158 21.3328 17.029C21.4734 17.2483 21.6583 17.5423 21.7807 17.9708C21.8304 18.1448 21.8761 18.434 21.9182 18.7696C21.9611 19.1121 22.0028 19.5237 22.0414 19.9548C22.1187 20.8173 22.1844 21.766 22.2236 22.4126C22.2382 22.6549 22.0454 22.8575 21.8045 22.8575H19.1626C18.9805 22.8575 18.8191 22.7401 18.763 22.5668L17.839 19.7108L16.7038 22.5915C16.6405 22.752 16.4856 22.8575 16.3131 22.8575H7.68762C7.51513 22.8575 7.36018 22.752 7.29691 22.5915L6.16172 19.7108L5.23769 22.5668C5.18161 22.7401 5.02021 22.8575 4.83808 22.8575H2.19621C1.95533 22.8575 1.76253 22.6549 1.77715 22.4126C1.81633 21.766 1.88198 20.8173 1.95926 19.9548C1.99788 19.5237 2.03957 19.1121 2.08254 18.7696C2.12465 18.434 2.1703 18.1448 2.22 17.9708C2.34242 17.5423 2.52732 17.2483 2.66789 17.029C2.74047 16.9158 2.79077 16.8379 2.82597 16.7659C2.85882 16.6987 2.86757 16.657 2.86758 16.625C2.86757 16.5459 2.85526 16.3851 2.83746 16.1415C2.82025 15.9061 2.79936 15.6098 2.78543 15.281C2.75768 14.6262 2.75678 13.8282 2.87133 13.1065C2.97542 12.4507 3.36687 11.9962 3.78961 11.7012C4.20823 11.409 4.6753 11.2593 4.98785 11.2093C5.57693 11.1151 6.36489 10.9355 7.21887 10.5939C7.64104 10.425 8.20244 10.1424 8.66695 9.8305C8.89941 9.67441 9.09892 9.5168 9.24316 9.36855C9.39449 9.21301 9.45257 9.10057 9.46359 9.03738C9.56124 8.47485 9.51554 8.18599 9.3948 7.72992C9.38445 7.69081 9.35836 7.64781 9.27398 7.56714C9.20366 7.49992 9.05754 7.37811 8.93976 7.24277C8.66749 6.92987 8.46376 6.47782 8.51508 5.66402C8.5309 5.41323 8.59663 5.21515 8.70433 5.05898C8.7829 4.94509 8.87537 4.86618 8.96156 4.80843C8.9494 4.40242 9.00779 3.69087 9.26777 2.84976C9.45268 2.25157 9.98116 1.83333 10.4973 1.56902C11.0193 1.30173 11.5992 1.1551 11.9906 1.14246L12.0004 1.44234L12.0101 1.14246ZM12.0004 1.74269C11.7095 1.75432 11.2216 1.87214 10.7707 2.10304C10.3089 2.33953 9.95498 2.65839 9.84105 3.02695C9.59407 3.82599 9.54906 4.48212 9.56156 4.80972L9.56484 4.87089C9.57638 5.0387 9.48927 5.19642 9.34418 5.27718C9.27909 5.31341 9.23314 5.34913 9.19828 5.39964C9.16391 5.44949 9.12416 5.5374 9.11379 5.70187C9.07094 6.38145 9.23807 6.6716 9.39234 6.8489C9.48783 6.95863 9.56896 7.01907 9.68859 7.13343C9.79415 7.23434 9.9208 7.37255 9.97476 7.5764C10.1113 8.09223 10.1709 8.47088 10.0548 9.13992C10.0123 9.38463 9.84992 9.60531 9.67324 9.78691C9.48938 9.97589 9.25303 10.1598 9.00152 10.3287C8.49803 10.6668 7.89844 10.9683 7.44176 11.151C6.53801 11.5125 5.70548 11.7022 5.08265 11.8018C4.8459 11.8397 4.46688 11.9602 4.13297 12.1932C3.80322 12.4234 3.53551 12.7489 3.46383 13.2005C3.35867 13.863 3.35778 14.6141 3.38496 15.2556C3.39849 15.5748 3.41881 15.8636 3.43594 16.0978C3.45246 16.3238 3.46757 16.5174 3.46758 16.625C3.46756 16.7798 3.4214 16.914 3.36504 17.0293C3.31099 17.1399 3.23769 17.2518 3.17297 17.3528C3.0389 17.5619 2.89419 17.7952 2.79691 18.1357C2.76162 18.2593 2.72043 18.505 2.67785 18.8443C2.63613 19.1769 2.59511 19.5807 2.5568 20.0084C2.48747 20.782 2.42782 21.6274 2.38816 22.2575H4.70707L5.74535 19.0485L5.75789 19.0144C5.89454 18.6838 6.36395 18.6691 6.52101 18.9905L6.53566 19.0237L7.81019 22.2575H16.1905L17.465 19.0237L17.4797 18.9905C17.6367 18.6691 18.1062 18.6838 18.2428 19.0144L18.2553 19.0485L19.2936 22.2575H21.6125C21.5729 21.6274 21.5132 20.782 21.4439 20.0084C21.4056 19.5807 21.3646 19.1769 21.3228 18.8443C21.2803 18.505 21.2391 18.2593 21.2038 18.1357C21.1065 17.7952 20.9618 17.5619 20.8277 17.3528C20.763 17.2518 20.6897 17.1399 20.6357 17.0293C20.5793 16.914 20.5331 16.7798 20.5331 16.625C20.5331 16.5174 20.5482 16.3238 20.5648 16.0978C20.5819 15.8636 20.6022 15.5748 20.6157 15.2556C20.6429 14.6141 20.642 13.863 20.5369 13.2005C20.4652 12.7489 20.1975 12.4234 19.8677 12.1932C19.5338 11.9602 19.1548 11.8397 18.918 11.8018C18.2952 11.7022 17.4627 11.5125 16.5589 11.151C16.1023 10.9683 15.5027 10.6668 14.9992 10.3287C14.7477 10.1598 14.5113 9.97589 14.3275 9.78691C14.1508 9.60531 13.9884 9.38463 13.9459 9.13992C13.8298 8.47088 13.8894 8.09223 14.0259 7.5764C14.0799 7.37255 14.2066 7.23434 14.3121 7.13343C14.4317 7.01907 14.5129 6.95863 14.6084 6.8489C14.7626 6.6716 14.9298 6.38145 14.8869 5.70187C14.8765 5.5374 14.8368 5.44949 14.8024 5.39964C14.7676 5.34913 14.7216 5.31341 14.6565 5.27718C14.5114 5.19642 14.4243 5.0387 14.4359 4.87089L14.4391 4.80972C14.4516 4.48212 14.4066 3.82599 14.1596 3.02695C14.0457 2.65839 13.6918 2.33953 13.23 2.10304C12.7791 1.87214 12.2912 1.75432 12.0004 1.74269Z" fill="#6A6765"/>
<path d="M12.2402 15.7939V13.7575C12.2402 13.4269 12.3335 13.1029 12.5093 12.8229C12.8309 12.3108 13.3931 12 13.9977 12H15.7292C16.2918 12 16.8328 12.2169 17.2396 12.6056C17.6713 13.0181 17.9155 13.5892 17.9155 14.1863V14.7526C17.9155 15.5756 17.4938 16.3412 16.7982 16.781L16.5793 16.9194C16.161 17.184 15.6711 17.3127 15.1767 17.288L13.5858 17.2084C13.2262 17.1904 12.8869 17.0362 12.637 16.777C12.3825 16.513 12.2402 16.1606 12.2402 15.7939Z" fill="#EC5D18"/>
<path d="M11.7607 15.7939V13.7575C11.7607 13.4269 11.6675 13.1029 11.4916 12.8229C11.1701 12.3108 10.6079 12 10.0032 12H8.27181C7.70917 12 7.16818 12.2169 6.76139 12.6056C6.32972 13.0181 6.08552 13.5892 6.08552 14.1863V14.7526C6.08552 15.5756 6.50722 16.3412 7.20282 16.781L7.42169 16.9194C7.84002 17.184 8.32991 17.3127 8.82425 17.288L10.4152 17.2084C10.7748 17.1904 11.114 17.0362 11.364 16.777C11.6185 16.513 11.7607 16.1606 11.7607 15.7939Z" fill="#EC5D18"/>
</svg>
