<svg width="30" height="30" viewBox="0 0 30 30" fill="none" xmlns="http://www.w3.org/2000/svg">
<path d="M15.0119 1.42822C15.5012 1.44402 16.226 1.62731 16.8785 1.96143C17.5237 2.29181 18.1843 2.81462 18.4154 3.56235C18.7404 4.61374 18.8134 5.50318 18.7982 6.01069C18.9059 6.08288 19.0215 6.18152 19.1197 6.32388C19.2544 6.51909 19.3365 6.76669 19.3563 7.08018C19.4204 8.09743 19.1658 8.66249 18.8254 9.05361C18.6782 9.22279 18.4956 9.37505 18.4077 9.45908C18.3022 9.55991 18.2696 9.61366 18.2566 9.66255C18.1057 10.2326 18.0486 10.5937 18.1707 11.2969C18.1844 11.3759 18.257 11.5164 18.4462 11.7108C18.6265 11.8962 18.8759 12.0932 19.1665 12.2883C19.7471 12.6782 20.4488 13.0314 20.9766 13.2425C22.044 13.6695 23.029 13.894 23.7653 14.0118C24.156 14.0743 24.7398 14.2615 25.2631 14.6266C25.7916 14.9954 26.2809 15.5635 26.411 16.3833C26.5542 17.2854 26.553 18.2829 26.5184 19.1014C26.5009 19.5125 26.4748 19.8828 26.4533 20.177C26.4311 20.4815 26.4157 20.6826 26.4157 20.7814C26.4157 20.8214 26.4266 20.8735 26.4677 20.9575C26.5117 21.0476 26.5746 21.1448 26.6653 21.2864C26.841 21.5605 27.0721 21.9281 27.2251 22.4637C27.2873 22.6811 27.3443 23.0426 27.397 23.4621C27.4507 23.8902 27.5028 24.4048 27.5511 24.9437C27.6477 26.0218 27.7297 27.2077 27.7787 28.0159C27.797 28.3187 27.556 28.572 27.2549 28.5721H23.9525C23.7249 28.5721 23.5231 28.4252 23.453 28.2086L22.298 24.6387L20.879 28.2395C20.7999 28.4401 20.6062 28.5721 20.3906 28.5721H9.60879C9.39318 28.5721 9.19949 28.4401 9.12041 28.2395L7.70141 24.6387L6.54638 28.2086C6.47628 28.4252 6.27452 28.5721 6.04687 28.5721H2.74453C2.44343 28.572 2.20243 28.3187 2.2207 28.0159C2.26968 27.2077 2.35174 26.0218 2.44834 24.9437C2.49662 24.4048 2.54872 23.8902 2.60244 23.4621C2.65507 23.0426 2.71214 22.6811 2.77427 22.4637C2.9273 21.9281 3.15842 21.5605 3.33413 21.2864C3.42485 21.1448 3.48773 21.0476 3.53174 20.9575C3.5728 20.8735 3.58372 20.8214 3.58374 20.7814C3.58373 20.6826 3.56834 20.4815 3.54609 20.177C3.52458 19.8828 3.49847 19.5125 3.48105 19.1014C3.44637 18.2829 3.44525 17.2854 3.58843 16.3833C3.71854 15.5635 4.20785 14.9954 4.73628 14.6266C5.25956 14.2615 5.84339 14.0743 6.23408 14.0118C6.97043 13.894 7.95537 13.6695 9.02285 13.2425C9.55057 13.0314 10.2523 12.6782 10.833 12.2883C11.1235 12.0932 11.3729 11.8962 11.5532 11.7108C11.7424 11.5164 11.815 11.3759 11.8288 11.2969C11.9508 10.5937 11.8937 10.2326 11.7428 9.66255C11.7298 9.61366 11.6972 9.55991 11.5917 9.45908C11.5038 9.37505 11.3212 9.22279 11.174 9.05361C10.8336 8.66249 10.579 8.09743 10.6431 7.08018C10.6629 6.76669 10.7451 6.51909 10.8797 6.32388C10.9779 6.18152 11.0935 6.08288 11.2012 6.01069C11.186 5.50318 11.259 4.61374 11.584 3.56235C11.8151 2.81462 12.4757 2.29181 13.1209 1.96143C13.7734 1.62731 14.4982 1.44402 14.9875 1.42822L14.9997 1.80308L15.0119 1.42822ZM14.9997 2.17852C14.6361 2.19305 14.0263 2.34033 13.4626 2.62896C12.8854 2.92457 12.443 3.32314 12.3006 3.78384C11.9919 4.78264 11.9356 5.6028 11.9512 6.0123L11.9553 6.08877C11.9697 6.29853 11.8609 6.49567 11.6795 6.59663C11.5981 6.64192 11.5407 6.68657 11.4971 6.74971C11.4542 6.81202 11.4045 6.9219 11.3915 7.12749C11.3379 7.97697 11.5469 8.33966 11.7397 8.56128C11.8591 8.69844 11.9605 8.77399 12.11 8.91694C12.2419 9.04308 12.4003 9.21583 12.4677 9.47065C12.6384 10.1154 12.7129 10.5888 12.5678 11.425C12.5146 11.7309 12.3117 12.0068 12.0908 12.2338C11.861 12.47 11.5655 12.6999 11.2512 12.911C10.6218 13.3336 9.87232 13.7105 9.30146 13.9389C8.17178 14.3907 7.13112 14.6279 6.35259 14.7524C6.05665 14.7998 5.58286 14.9504 5.16548 15.2417C4.7533 15.5293 4.41865 15.9363 4.32905 16.5007C4.19761 17.3289 4.19649 18.2677 4.23047 19.0696C4.24738 19.4687 4.27279 19.8296 4.29419 20.1224C4.31484 20.4049 4.33374 20.6469 4.33374 20.7814C4.33372 20.9749 4.27602 21.1426 4.20556 21.2868C4.138 21.425 4.04638 21.5649 3.96548 21.6911C3.7979 21.9525 3.617 22.2442 3.49541 22.6698C3.45129 22.8243 3.39981 23.1313 3.34658 23.5556C3.29442 23.9713 3.24316 24.476 3.19526 25.0106C3.10861 25.9777 3.03404 27.0345 2.98447 27.8221H5.8831L7.18095 23.8107L7.19663 23.7681C7.36744 23.3549 7.95421 23.3366 8.15053 23.7382L8.16885 23.7798L9.76201 27.8221H20.2374L21.8306 23.7798L21.8489 23.7382C22.0452 23.3366 22.632 23.3549 22.8028 23.7681L22.8185 23.8107L24.1163 27.8221H27.0149C26.9654 27.0345 26.8908 25.9777 26.8041 25.0106C26.7563 24.476 26.705 23.9713 26.6528 23.5556C26.5996 23.1313 26.5481 22.8243 26.504 22.6698C26.3824 22.2442 26.2015 21.9525 26.0339 21.6911C25.953 21.5649 25.8614 21.425 25.7938 21.2868C25.7234 21.1426 25.6657 20.9749 25.6657 20.7814C25.6657 20.6469 25.6846 20.4049 25.7052 20.1224C25.7266 19.8296 25.752 19.4687 25.7689 19.0696C25.8029 18.2677 25.8018 17.3289 25.6704 16.5007C25.5808 15.9363 25.2461 15.5293 24.8339 15.2417C24.4165 14.9504 23.9428 14.7998 23.6468 14.7524C22.8683 14.6279 21.8276 14.3907 20.6979 13.9389C20.1271 13.7105 19.3776 13.3336 18.7482 12.911C18.4339 12.6999 18.1384 12.47 17.9086 12.2338C17.6877 12.0068 17.4848 11.7309 17.4316 11.425C17.2865 10.5888 17.361 10.1154 17.5317 9.47065C17.5991 9.21583 17.7575 9.04308 17.8894 8.91694C18.0389 8.77399 18.1404 8.69844 18.2597 8.56128C18.4526 8.33966 18.6615 7.97697 18.6079 7.12749C18.5949 6.9219 18.5453 6.81202 18.5023 6.74971C18.4587 6.68657 18.4013 6.64192 18.3199 6.59663C18.1386 6.49567 18.0297 6.29853 18.0441 6.08877L18.0482 6.0123C18.0638 5.6028 18.0076 4.78264 17.6988 3.78384C17.5564 3.32314 17.114 2.92457 16.5368 2.62896C15.9731 2.34033 15.3633 2.19305 14.9997 2.17852Z" fill="#6A6765"/>
<path d="M15.2998 19.7425V17.197C15.2998 16.7837 15.4164 16.3788 15.6362 16.0288C16.0381 15.3887 16.7409 15.0001 17.4967 15.0001H19.661C20.3643 15.0001 21.0405 15.2713 21.549 15.7572C22.0886 16.2728 22.3938 16.9866 22.3938 17.733V18.4408C22.3938 19.4696 21.8667 20.4266 20.9972 20.9764L20.7236 21.1494C20.2007 21.4801 19.5883 21.641 18.9704 21.6101L16.9817 21.5107C16.5323 21.4882 16.1082 21.2954 15.7958 20.9714C15.4776 20.6414 15.2998 20.2009 15.2998 19.7425Z" fill="#EC5D18"/>
<path d="M14.7002 19.7425V17.197C14.7002 16.7837 14.5836 16.3788 14.3638 16.0288C13.9619 15.3887 13.2591 15.0001 12.5033 15.0001H10.339C9.63572 15.0001 8.95949 15.2713 8.45101 15.7572C7.91141 16.2728 7.60617 16.9866 7.60617 17.733V18.4408C7.60617 19.4696 8.1333 20.4266 9.00279 20.9764L9.27638 21.1494C9.7993 21.4801 10.4117 21.641 11.0296 21.6101L13.0183 21.5107C13.4677 21.4882 13.8918 21.2954 14.2042 20.9714C14.5224 20.6414 14.7002 20.2009 14.7002 19.7425Z" fill="#EC5D18"/>
</svg>
