<svg width="30" height="30" viewBox="0 0 30 30" fill="none" xmlns="http://www.w3.org/2000/svg">
<path d="M15.001 2.41614C15.1984 2.41616 15.5044 2.44271 15.8028 2.52258C16.0832 2.59773 16.4482 2.74386 16.6543 3.047C16.8313 3.30763 16.9233 3.69598 16.9756 4.01672C17.0109 4.23358 17.0289 4.45157 17.041 4.63586C17.1046 4.67046 17.167 4.7155 17.2246 4.77258C17.4022 4.94839 17.5038 5.20508 17.5039 5.5304C17.5039 5.98606 17.2478 6.30939 17.0615 6.51086C17.0139 6.56232 16.9662 6.61047 16.9268 6.65051C16.8854 6.69258 16.8536 6.72545 16.8281 6.75403C16.8208 6.76232 16.8145 6.76958 16.8096 6.77551C16.805 6.95794 16.8059 7.33573 16.8086 7.61438C16.9915 7.75458 17.2312 7.93374 17.4727 8.10168C17.7931 8.32453 18.0824 8.50516 18.2451 8.57239C18.3495 8.61548 18.411 8.62872 18.4473 8.63293C18.483 8.63702 18.5108 8.63551 18.5713 8.63C18.6334 8.62435 18.7294 8.6141 18.8496 8.62805C18.9697 8.64202 19.0986 8.67743 19.251 8.74036C19.5302 8.85571 19.9937 9.08334 20.4258 9.44934C20.8583 9.81576 21.2802 10.3388 21.4317 11.0431C21.6052 11.8503 21.6405 12.4031 21.626 12.6954C21.8063 13.0383 22.0863 13.713 22.1221 14.4015C22.1512 14.9626 22.1425 15.4156 22.1299 15.673C22.2137 15.7831 22.3088 15.9255 22.3955 16.0861C22.5186 16.3141 22.64 16.6064 22.669 16.9132C22.6856 17.0896 22.6808 17.3999 22.669 17.7491C22.6568 18.1075 22.6354 18.5344 22.6123 18.9601C22.5656 19.823 22.5137 20.6626 22.5137 20.9738C22.5137 21.2822 22.5582 21.6448 22.584 22.0275C22.5961 22.2069 22.6034 22.392 22.5928 22.5529C22.5835 22.6924 22.5577 22.9014 22.4356 23.0597C22.3684 23.1466 22.224 23.3624 22.0654 23.5177C21.8915 23.688 21.6319 23.8609 21.2793 23.8419C20.8994 23.8212 20.6747 23.5732 20.5518 23.3966C20.4911 23.3095 20.4393 23.2165 20.4082 23.1632C20.4075 23.162 20.4069 23.1604 20.4063 23.1593C20.3841 23.1562 20.3583 23.1525 20.3311 23.1447C20.0493 23.0633 19.9466 22.7916 19.8858 22.5538C19.8294 22.3328 19.8727 22.1207 19.9307 21.9532C19.9891 21.7847 20.0764 21.6214 20.1524 21.4865C20.2351 21.3395 20.3009 21.2307 20.3486 21.129C20.38 21.0621 20.3881 21.0277 20.3906 21.0177C20.3816 20.9657 20.3532 20.8607 20.2959 20.6915C20.2377 20.5198 20.1636 20.3171 20.0811 20.0831C19.9197 19.6253 19.7317 19.0676 19.6279 18.5538C19.5023 17.9315 19.4888 17.4235 19.5088 17.1105C19.2766 16.901 18.9652 16.5401 18.7627 16.0568C18.6891 15.8809 18.6134 15.6765 18.5391 15.4679C18.4511 15.9659 18.4034 16.5293 18.4717 17.0382C18.6563 18.4139 18.8133 19.1112 18.9981 19.8966C19.0826 20.2557 19.2446 20.5554 19.4307 21.0128C19.6084 21.4498 19.7719 21.9626 19.7822 22.6281C19.8012 23.8521 19.5078 26.253 19.4922 26.462C19.4791 26.6401 19.4869 27.0184 19.4932 27.1954L19.5069 27.5841H16.6328L16.5225 27.4083C16.385 27.1899 16.1715 26.8267 15.9727 26.4386C15.7775 26.0575 15.5809 25.6231 15.4951 25.2716C15.3889 24.8362 15.1727 24.0255 15 23.382C14.8274 24.0254 14.613 24.8363 14.5069 25.2716C14.4211 25.6231 14.2245 26.0575 14.0293 26.4386C13.8306 26.8266 13.617 27.1899 13.4795 27.4083L13.3692 27.5841H10.4951L10.5088 27.1954C10.5151 27.0184 10.5229 26.6401 10.5098 26.462C10.4942 26.2532 10.2008 23.8522 10.2197 22.6281C10.2301 21.9626 10.3936 21.4498 10.5713 21.0128C10.7573 20.5555 10.9194 20.2557 11.0039 19.8966C11.1887 19.1113 11.3456 18.4138 11.5303 17.0382C11.5985 16.5293 11.5509 15.9659 11.4629 15.4679C11.3886 15.6764 11.3129 15.881 11.2393 16.0568C11.0369 16.5399 10.7254 16.9009 10.4932 17.1105C10.5132 17.4235 10.4997 17.9315 10.374 18.5538C10.2703 19.0676 10.0823 19.6253 9.92091 20.0831C9.83845 20.3171 9.76423 20.5198 9.70607 20.6915C9.64881 20.8606 9.62043 20.9657 9.61134 21.0177C9.61389 21.0277 9.62187 21.062 9.65334 21.129C9.70112 21.2307 9.76679 21.3394 9.84963 21.4865C9.92564 21.6214 10.0129 21.7846 10.0713 21.9532C10.1293 22.1207 10.1726 22.3329 10.1162 22.5538C10.0554 22.7916 9.95243 23.0632 9.67091 23.1447C9.64375 23.1525 9.61788 23.1562 9.59572 23.1593C9.59509 23.1604 9.5944 23.1621 9.59377 23.1632C9.56272 23.2165 9.51079 23.3095 9.45021 23.3966C9.32735 23.5731 9.10248 23.8211 8.72267 23.8419C8.37001 23.861 8.1105 23.688 7.93654 23.5177C7.77794 23.3624 7.63363 23.1467 7.56642 23.0597C7.44415 22.9014 7.41844 22.6924 7.4092 22.5529C7.39858 22.392 7.40588 22.207 7.41798 22.0275C7.44382 21.6448 7.4883 21.2822 7.4883 20.9738C7.48824 20.6626 7.43642 19.823 7.38966 18.9601C7.3666 18.5344 7.34521 18.1075 7.33302 17.7491C7.32115 17.3999 7.3164 17.0897 7.33302 16.9132C7.36201 16.6064 7.48336 16.3141 7.60646 16.0861C7.69318 15.9255 7.78833 15.783 7.87209 15.673C7.85945 15.4156 7.85075 14.9627 7.8799 14.4015C7.91572 13.713 8.19573 13.0383 8.37599 12.6954C8.36147 12.4031 8.39681 11.8503 8.57033 11.0431C8.72186 10.3388 9.14365 9.81575 9.57619 9.44934C10.0083 9.0834 10.4718 8.85567 10.751 8.74036C10.9033 8.67747 11.0323 8.642 11.1524 8.62805C11.2726 8.61413 11.3686 8.62436 11.4307 8.63C11.4912 8.6355 11.5189 8.63705 11.5547 8.63293C11.5911 8.62868 11.6526 8.61542 11.7569 8.57239C11.9197 8.50506 12.2091 8.32443 12.5293 8.10168C12.7707 7.93377 13.0106 7.75454 13.1934 7.61438C13.1961 7.33573 13.197 6.95794 13.1924 6.77551C13.1875 6.76954 13.1813 6.76243 13.1738 6.75403C13.1483 6.7254 13.1167 6.69268 13.0752 6.65051C13.0358 6.61043 12.9881 6.56241 12.9404 6.51086C12.7541 6.30941 12.4981 5.98624 12.4981 5.5304C12.4982 5.20506 12.5998 4.94839 12.7774 4.77258C12.835 4.71557 12.8974 4.67042 12.961 4.63586C12.9731 4.45157 12.991 4.23357 13.0264 4.01672C13.0787 3.696 13.1707 3.30761 13.3477 3.047C13.5539 2.74395 13.9188 2.5977 14.1992 2.52258C14.4976 2.44274 14.8037 2.41614 15.001 2.41614ZM15.001 3.16614C14.8565 3.16614 14.6175 3.18634 14.3936 3.24622C14.1524 3.31077 14.0166 3.39838 13.9688 3.4679C13.8925 3.58009 13.818 3.82241 13.7666 4.13782C13.7181 4.43533 13.6985 4.73837 13.6953 4.922L13.6895 5.29114H13.3203C13.3353 5.29111 13.3214 5.28852 13.3047 5.30481C13.296 5.3134 13.2482 5.36444 13.2481 5.5304C13.2481 5.6896 13.3337 5.83171 13.4912 6.00208C13.5293 6.04324 13.568 6.08212 13.6094 6.12415C13.6488 6.16423 13.6934 6.21012 13.7334 6.255C13.7727 6.29912 13.8189 6.35462 13.8565 6.41809C13.8936 6.48083 13.9361 6.57345 13.9414 6.68762C13.951 6.89815 13.9451 7.5278 13.9414 7.80579L13.9395 7.9845L13.7979 8.09583C13.6013 8.25038 13.2818 8.49167 12.958 8.71692C12.6444 8.93505 12.2917 9.16297 12.043 9.26575C11.8906 9.32864 11.7616 9.36409 11.6416 9.37805C11.5213 9.39201 11.4254 9.38175 11.3633 9.3761C11.3027 9.37059 11.275 9.36907 11.2393 9.37317C11.203 9.37738 11.1415 9.39063 11.0371 9.43372C10.802 9.53081 10.4148 9.72249 10.0615 10.0216C9.70873 10.3204 9.40951 10.7095 9.30373 11.2013C9.10086 12.1452 9.11421 12.633 9.12795 12.714L9.15041 12.8488L9.08107 12.9669C8.94553 13.1985 8.66053 13.8333 8.62892 14.4406C8.5939 15.1148 8.6148 15.6122 8.62795 15.7638L8.64259 15.924L8.53615 16.0441C8.47271 16.1162 8.36289 16.2624 8.26564 16.4425C8.16704 16.6251 8.09592 16.8163 8.08009 16.9835C8.06879 17.1034 8.06982 17.3642 8.08205 17.7238C8.09397 18.0741 8.11565 18.495 8.13869 18.92C8.18414 19.7588 8.23825 20.6356 8.2383 20.9738C8.2383 21.3136 8.18774 21.7566 8.16603 22.0782C8.15439 22.2508 8.15007 22.3942 8.15724 22.5031C8.16585 22.6332 8.18756 22.6361 8.16017 22.6007C8.28299 22.7596 8.35129 22.8741 8.46095 22.9816C8.55531 23.0739 8.62066 23.0962 8.68166 23.0929C8.71517 23.091 8.75961 23.0762 8.83498 22.9679C8.87311 22.913 8.90296 22.858 8.94533 22.7853C8.96643 22.7491 9.00912 22.6745 9.06838 22.6066L9.13283 22.5421L9.21584 22.4855C9.24422 22.4697 9.27398 22.4564 9.30373 22.4464C9.3267 22.4387 9.34903 22.4338 9.36916 22.4298C9.37444 22.4128 9.38338 22.3929 9.38966 22.3683C9.39455 22.3488 9.39813 22.2989 9.3633 22.1984C9.32872 22.0986 9.26983 21.9859 9.19533 21.8536C9.12763 21.7335 9.03798 21.5823 8.97463 21.4474C8.91599 21.3225 8.83698 21.1271 8.86623 20.921C8.88458 20.7924 8.93892 20.6202 8.99611 20.4513C9.05616 20.274 9.13405 20.0569 9.21291 19.8331C9.37435 19.3751 9.54641 18.8623 9.63869 18.4054C9.78834 17.6641 9.75424 17.1453 9.73048 17.0157L9.68654 16.7765L9.88771 16.6388C10.0048 16.5583 10.3471 16.2437 10.5469 15.7667C10.77 15.234 11.0355 14.3967 11.1406 14.0411L11.4561 12.9738L11.8506 14.0138C12.0562 14.5555 12.4346 15.9357 12.2735 17.1378C12.0847 18.5442 11.923 19.2668 11.7344 20.0685C11.6322 20.5025 11.4166 20.9265 11.2666 21.295C11.1083 21.6842 10.9781 22.1011 10.9697 22.6398C10.9514 23.8238 11.2358 26.109 11.2578 26.4064C11.2662 26.5189 11.2677 26.68 11.2666 26.8341H12.9492C13.0687 26.6349 13.22 26.3727 13.3613 26.0968C13.5527 25.7233 13.7147 25.3546 13.7783 25.0939C13.9292 24.4755 14.2907 23.1285 14.4522 22.5353L14.4805 22.4318L14.5596 22.3585L14.7461 22.1857L15.001 22.4611L15.2559 22.1857L15.4424 22.3585L15.5215 22.4318L15.5498 22.5353C15.7113 23.1285 16.0728 24.4755 16.2236 25.0939C16.2873 25.3547 16.4493 25.7232 16.6406 26.0968C16.782 26.3728 16.9333 26.6349 17.0528 26.8341H18.7354C18.7343 26.68 18.7358 26.5189 18.7442 26.4064C18.7662 26.1089 19.0506 23.8237 19.0322 22.6398C19.0239 22.1011 18.8937 21.6842 18.7354 21.295C18.5854 20.9265 18.3698 20.5026 18.2676 20.0685C18.079 19.2668 17.9173 18.5442 17.7285 17.1378C17.5673 15.9357 17.9458 14.5555 18.1514 14.0138L18.5459 12.9738L18.8613 14.0411C18.9665 14.3968 19.2319 15.234 19.4551 15.7667C19.6551 16.2441 19.9974 16.5586 20.1143 16.6388L20.3154 16.7765L20.2715 17.0157C20.2477 17.1453 20.2136 17.6641 20.3633 18.4054C20.4556 18.8623 20.6276 19.3751 20.7891 19.8331C20.868 20.0569 20.9458 20.274 21.0059 20.4513C21.0631 20.6202 21.1174 20.7924 21.1358 20.921C21.165 21.127 21.086 21.3225 21.0274 21.4474C20.964 21.5822 20.8743 21.7335 20.8067 21.8536C20.7322 21.9858 20.6733 22.0987 20.6387 22.1984C20.6038 22.2991 20.6074 22.3489 20.6123 22.3683C20.6186 22.3929 20.6275 22.4127 20.6328 22.4298C20.653 22.4339 20.6753 22.4387 20.6983 22.4464C20.728 22.4564 20.7577 22.4697 20.7861 22.4855L20.8692 22.5421L20.9336 22.6066C20.993 22.6746 21.0356 22.7491 21.0567 22.7853C21.0991 22.8581 21.1288 22.9129 21.167 22.9679C21.2426 23.0764 21.2868 23.0911 21.3203 23.0929C21.3813 23.0961 21.4468 23.0739 21.541 22.9816C21.6506 22.8742 21.7191 22.7595 21.8418 22.6007C21.8144 22.6361 21.8361 22.6332 21.8447 22.5031C21.8519 22.3942 21.8476 22.2508 21.836 22.0782C21.8142 21.7566 21.7637 21.3136 21.7637 20.9738C21.7637 20.6356 21.8178 19.7588 21.8633 18.92C21.8863 18.495 21.908 18.0741 21.9199 17.7238C21.9322 17.3643 21.9332 17.1034 21.9219 16.9835C21.9061 16.8163 21.835 16.6251 21.7363 16.4425C21.6391 16.2624 21.5293 16.1162 21.4658 16.0441L21.3594 15.924L21.374 15.7638C21.3872 15.6121 21.4081 15.1147 21.3731 14.4406C21.3415 13.8333 21.0565 13.1985 20.9209 12.9669L20.8516 12.8488L20.874 12.714C20.8878 12.6328 20.9011 12.1449 20.6983 11.2013C20.5925 10.7095 20.2933 10.3204 19.9404 10.0216C19.5872 9.72243 19.2 9.53085 18.9649 9.43372C18.8605 9.39062 18.7991 9.37742 18.7627 9.37317C18.7269 9.36904 18.6992 9.3706 18.6387 9.3761C18.5766 9.38174 18.4807 9.39199 18.3604 9.37805C18.2403 9.36412 18.1114 9.32865 17.959 9.26575C17.7103 9.16303 17.3577 8.93512 17.044 8.71692C16.7201 8.49164 16.4007 8.25042 16.2041 8.09583L16.0625 7.9845L16.0606 7.80579C16.0569 7.5278 16.051 6.89815 16.0606 6.68762C16.0659 6.57347 16.1084 6.48083 16.1455 6.41809C16.1831 6.3547 16.2293 6.29908 16.2686 6.255C16.3085 6.21019 16.3532 6.16417 16.3926 6.12415C16.4339 6.0822 16.4727 6.04317 16.5108 6.00208C16.6682 5.83181 16.7539 5.68953 16.7539 5.5304C16.7538 5.36457 16.706 5.31346 16.6973 5.30481C16.6804 5.28819 16.6662 5.29114 16.6817 5.29114H16.3125L16.3067 4.922C16.3034 4.73837 16.2838 4.43534 16.2354 4.13782C16.184 3.82238 16.1095 3.5801 16.0332 3.4679C15.9856 3.39836 15.8497 3.31083 15.6084 3.24622C15.3846 3.18631 15.1455 3.16616 15.001 3.16614Z" fill="#6C6B6B"/>
<path d="M15.3457 12.4087V10.1087C15.3457 10.0907 15.3609 9.92895 15.9916 9.62661C16.4322 9.41532 16.8943 9.46233 17.1965 9.5528C17.3945 9.61205 17.5372 9.76999 17.6401 9.94916L18.2456 11.0036C18.3761 11.2309 18.4448 11.4884 18.4448 11.7505V11.8322C18.4448 12.012 18.4045 12.1935 18.294 12.3353C17.9716 12.7488 17.4988 12.9287 16.6631 13.0026C15.6869 13.089 15.3781 12.6427 15.3457 12.4087Z" fill="#EC5D18"/>
<path d="M14.6533 12.4087V10.1087C14.6533 10.0907 14.6381 9.92895 14.0075 9.62661C13.5668 9.41532 13.1047 9.46233 12.8025 9.5528C12.6046 9.61205 12.4618 9.76999 12.3589 9.94916L11.7534 11.0036C11.6229 11.2309 11.5542 11.4884 11.5542 11.7505V11.8322C11.5542 12.012 11.5945 12.1935 11.705 12.3353C12.0274 12.7488 12.5002 12.9287 13.3359 13.0026C14.3121 13.089 14.6209 12.6427 14.6533 12.4087Z" fill="#EC5D18"/>
<path d="M19.8283 10.3609C19.5953 10.0419 19.0191 9.83562 18.5932 9.73209C18.4707 9.70233 18.3806 9.83165 18.4458 9.93945C18.5341 10.0854 18.6357 10.2479 18.7145 10.3609C18.8858 10.6065 18.9829 11.1891 19.1714 11.4861C19.3592 11.7819 20.0514 12.2818 20.1583 12.3591L20.1595 12.3599C20.2623 12.4342 20.3823 12.3714 20.4108 12.3143C20.4394 12.2571 20.3994 11.6746 20.3309 11.3433C20.2623 11.012 20.1995 10.8692 19.8283 10.3609Z" fill="#EC5D18"/>
<path d="M10.1708 10.3609C10.4037 10.0419 10.9799 9.83562 11.4059 9.73209C11.5283 9.70233 11.6184 9.83165 11.5532 9.93945C11.4649 10.0854 11.3634 10.2479 11.2845 10.3609C11.1132 10.6065 11.0161 11.1891 10.8276 11.4861C10.6398 11.7819 9.94765 12.2818 9.84072 12.3591L9.83951 12.3599C9.7367 12.4342 9.61676 12.3714 9.5882 12.3143C9.55964 12.2571 9.59962 11.6746 9.66816 11.3433C9.7367 11.012 9.79953 10.8692 10.1708 10.3609Z" fill="#EC5D18"/>
<path d="M20.3683 13.6661C20.1922 13.2316 19.6686 12.8832 19.4288 12.7633C19.3748 12.7443 19.2595 12.7234 19.2299 12.7924C19.1929 12.8786 19.1719 12.8587 19.2086 13.3138C19.2453 13.7689 19.3334 14.268 19.5389 14.9286C19.7444 15.5892 20.4197 16.2864 20.5298 16.3452C20.6399 16.4039 20.7133 16.4332 20.772 16.3452C20.8307 16.2571 20.8967 15.4057 20.838 14.9286C20.7793 14.4515 20.5885 14.2093 20.3683 13.6661Z" fill="#EC5D18"/>
<path d="M9.63073 13.6661C9.80687 13.2316 10.3305 12.8832 10.5702 12.7633C10.6242 12.7443 10.7396 12.7234 10.7691 12.7924C10.8061 12.8786 10.8271 12.8587 10.7904 13.3138C10.7537 13.7689 10.6657 14.268 10.4601 14.9286C10.2546 15.5892 9.57936 16.2864 9.46927 16.3452C9.35917 16.4039 9.28577 16.4332 9.22705 16.3452C9.16833 16.2571 9.10228 15.4057 9.16099 14.9286C9.21971 14.4515 9.41055 14.2093 9.63073 13.6661Z" fill="#EC5D18"/>
<path d="M15.3027 14.3649V13.763C15.3027 13.6441 15.3238 13.495 15.4385 13.4636C15.4486 13.4609 15.4586 13.4598 15.4684 13.4609C15.548 13.4697 15.8022 13.5599 16.0144 13.61C16.2266 13.6601 17.0274 13.6198 17.0687 13.6878C17.1246 13.7796 17.0843 14.2177 17.0843 14.365C17.0843 14.5124 16.8536 14.7416 16.7092 14.7416H15.6596C15.5837 14.7416 15.5196 14.7264 15.4673 14.7046C15.3397 14.6512 15.3027 14.5033 15.3027 14.3649Z" fill="#EC5D18"/>
<path d="M16.3694 17.0324H15.6104C15.4447 17.0324 15.3107 17.1667 15.3107 17.3324V18.6854C15.3107 18.8735 15.4839 19.0167 15.6556 18.9401C15.9224 18.8212 16.1425 18.6303 16.2991 18.3911C16.519 18.0552 16.6503 17.5158 16.6693 17.3606V17.3324C16.6693 17.1667 16.5351 17.0324 16.3694 17.0324Z" fill="#EC5D18"/>
<path d="M14.6963 14.3649V13.763C14.6963 13.6441 14.6752 13.495 14.5605 13.4636C14.5504 13.4609 14.5404 13.4598 14.5306 13.4609C14.451 13.4697 14.1969 13.5599 13.9847 13.61C13.7725 13.6601 12.9717 13.6198 12.9303 13.6878C12.8744 13.7796 12.9148 14.2177 12.9148 14.365C12.9148 14.5124 13.1454 14.7416 13.2898 14.7416H14.3395C14.4153 14.7416 14.4794 14.7264 14.5317 14.7046C14.6593 14.6512 14.6963 14.5033 14.6963 14.3649Z" fill="#EC5D18"/>
<path d="M13.6296 17.0324H14.3886C14.5543 17.0324 14.6883 17.1667 14.6883 17.3324V18.6854C14.6883 18.8735 14.5151 19.0167 14.3434 18.9401C14.0766 18.8212 13.8565 18.6303 13.6999 18.3911C13.4801 18.0552 13.3488 17.5158 13.3297 17.3606V17.3324C13.3297 17.1667 13.4639 17.0324 13.6296 17.0324Z" fill="#EC5D18"/>
<path d="M15.2998 16.1887V15.5716C15.2998 15.4636 15.3643 15.3661 15.4636 15.3239C15.4963 15.31 15.5313 15.3027 15.5668 15.3025C15.8626 15.3009 16.3574 15.3023 16.4984 15.3027C16.5243 15.3028 16.5496 15.3062 16.5746 15.3129L16.6532 15.334C16.7844 15.3691 16.8756 15.488 16.8756 15.6238V16.0285C16.8756 16.1081 16.844 16.1844 16.7877 16.2406L16.6892 16.3392C16.6325 16.3959 16.5557 16.4275 16.4756 16.4271C16.0784 16.4252 15.4653 16.4234 15.4492 16.4277C15.4454 16.4288 15.4382 16.4268 15.429 16.4228C15.341 16.3844 15.2998 16.2847 15.2998 16.1887Z" fill="#EC5D18"/>
<path d="M14.6992 16.1887V15.5716C14.6992 15.4636 14.6347 15.3661 14.5354 15.3239C14.5027 15.31 14.4678 15.3027 14.4322 15.3025C14.1365 15.3009 13.6416 15.3023 13.5006 15.3027C13.4747 15.3028 13.4494 15.3062 13.4244 15.3129L13.3458 15.334C13.2146 15.3691 13.1234 15.488 13.1234 15.6238V16.0285C13.1234 16.1081 13.155 16.1844 13.2113 16.2406L13.3099 16.3392C13.3665 16.3959 13.4433 16.4275 13.5235 16.4271C13.9207 16.4252 14.5337 16.4234 14.5498 16.4277C14.5537 16.4288 14.5608 16.4268 14.57 16.4228C14.658 16.3844 14.6992 16.2847 14.6992 16.1887Z" fill="#EC5D18"/>
<path d="M18.326 22.0427C18.3017 21.28 17.7684 20.1211 17.4067 19.4525C17.3489 19.3456 17.1962 19.3528 17.1466 19.4638C16.9456 19.9138 16.663 20.5693 16.5722 20.8643C16.4336 21.3149 16.3227 21.7654 16.2742 22.5279C16.2256 23.2904 16.5029 24.1707 16.7108 24.9332C16.8431 25.418 17.1884 25.8824 17.4405 26.1593C17.5159 26.2421 17.647 26.2056 17.6741 26.0969C17.7404 25.8301 17.8202 25.4645 17.8407 25.2105C17.8754 24.7807 18.3606 23.131 18.326 22.0427Z" fill="#EC5D18"/>
<path d="M11.6731 22.0427C11.6974 21.28 12.2306 20.1211 12.5924 19.4525C12.6502 19.3456 12.8029 19.3528 12.8524 19.4638C13.0534 19.9138 13.336 20.5693 13.4268 20.8643C13.5654 21.3149 13.6764 21.7654 13.7249 22.5279C13.7734 23.2904 13.4961 24.1707 13.2882 24.9332C13.156 25.418 12.8106 25.8824 12.5585 26.1593C12.4831 26.2421 12.352 26.2056 12.325 26.0969C12.2586 25.8301 12.1788 25.4645 12.1583 25.2105C12.1237 24.7807 11.6384 23.131 11.6731 22.0427Z" fill="#EC5D18"/>
</svg>
