<svg width="24" height="24" viewBox="0 0 24 24" fill="none" xmlns="http://www.w3.org/2000/svg">
<path d="M12.0002 1.93298C12.158 1.93299 12.4032 1.95412 12.6418 2.01794C12.8661 2.07803 13.1575 2.19471 13.3225 2.43689C13.4643 2.64534 13.5375 2.95653 13.5793 3.21326C13.6078 3.38778 13.6224 3.5633 13.6321 3.7113C13.6825 3.73885 13.7338 3.77251 13.7795 3.81775C13.9215 3.95839 14.0021 4.164 14.0022 4.42419C14.0022 4.78883 13.7977 5.0472 13.6487 5.20837C13.6106 5.2496 13.5728 5.28862 13.5413 5.32068C13.5081 5.35436 13.4825 5.37983 13.4622 5.40271C13.4559 5.40972 13.4516 5.41635 13.4475 5.42126C13.4439 5.56752 13.4453 5.86878 13.4475 6.09119C13.5936 6.2032 13.785 6.34673 13.9778 6.48083C14.2336 6.65878 14.4646 6.80374 14.595 6.85779C14.6782 6.89216 14.7279 6.90221 14.7571 6.90564C14.7858 6.90896 14.8083 6.90808 14.8567 6.90369C14.9063 6.89917 14.9834 6.89163 15.0793 6.90271C15.1753 6.91388 15.2789 6.94229 15.4006 6.99255C15.624 7.08483 15.9946 7.26641 16.3401 7.55896C16.6862 7.85208 17.0235 8.27085 17.1448 8.83435C17.2837 9.48058 17.3098 9.92286 17.2981 10.1566C17.4423 10.4307 17.6678 10.9698 17.6965 11.5209C17.7199 11.9708 17.7106 12.3338 17.7004 12.5394C17.7676 12.6275 17.8467 12.7398 17.9163 12.8685C18.0147 13.0509 18.1108 13.2852 18.134 13.5306C18.1473 13.6718 18.1445 13.9195 18.135 14.1986C18.1253 14.4854 18.1076 14.8276 18.0891 15.1683C18.0517 15.8584 18.0101 16.5296 18.01 16.7787C18.01 17.0255 18.046 17.3162 18.0667 17.6224C18.0763 17.7658 18.0819 17.9129 18.0735 18.0414C18.0661 18.1531 18.0455 18.3209 17.9475 18.4476C17.8937 18.5174 17.7784 18.6897 17.6516 18.8138C17.5125 18.95 17.3055 19.0887 17.0237 19.0736C16.7198 19.057 16.539 18.8584 16.4407 18.7172C16.3922 18.6474 16.3512 18.5722 16.3264 18.5297C16.3253 18.528 16.3235 18.5264 16.3225 18.5248C16.3053 18.5223 16.2848 18.521 16.2639 18.515C16.039 18.4497 15.9561 18.2334 15.9075 18.0433C15.8623 17.8665 15.8972 17.6959 15.9436 17.5619C15.9904 17.4271 16.0606 17.2968 16.1213 17.1888C16.1877 17.0711 16.2403 16.9841 16.2786 16.9027C16.307 16.8422 16.3116 16.8155 16.3127 16.8119C16.3051 16.7696 16.2817 16.6862 16.2366 16.5531C16.19 16.4157 16.1307 16.253 16.0647 16.0658C15.9357 15.6997 15.7854 15.254 15.7024 14.8431C15.6019 14.3451 15.5897 13.9382 15.6057 13.6879C15.42 13.5201 15.1717 13.2311 15.01 12.8451C14.951 12.7043 14.8898 12.5405 14.8303 12.3734C14.7598 12.7719 14.723 13.2229 14.7776 13.6302C14.9253 14.7307 15.0497 15.2891 15.1975 15.9174C15.2651 16.2045 15.3954 16.4442 15.5442 16.8099C15.6864 17.1594 15.8171 17.5698 15.8254 18.1019C15.8406 19.0812 15.6055 21.0022 15.593 21.1693C15.5825 21.3117 15.5889 21.6145 15.594 21.7562L15.6047 22.0668H13.3059L13.218 21.9271C13.108 21.7524 12.9366 21.4612 12.7776 21.1508C12.6215 20.8459 12.4643 20.4983 12.3958 20.2172C12.3109 19.8692 12.1385 19.2218 12.0002 18.7074C11.8619 19.2219 11.6896 19.8693 11.6047 20.2172C11.5361 20.4984 11.3791 20.8459 11.2229 21.1508C11.0638 21.4614 10.8925 21.7524 10.7825 21.9271L10.6946 22.0668H8.39576L8.4065 21.7562C8.41155 21.6146 8.41799 21.3117 8.40747 21.1693C8.39498 21.0018 8.15987 19.0811 8.17505 18.1019C8.18341 17.5697 8.31413 17.1594 8.4563 16.8099C8.60514 16.4441 8.73536 16.2046 8.80298 15.9174C8.95082 15.289 9.07518 14.7308 9.2229 13.6302C9.27753 13.2229 9.24065 12.772 9.17017 12.3734C9.11065 12.5406 9.04951 12.7042 8.99048 12.8451C8.82868 13.2313 8.5805 13.5202 8.39478 13.6879C8.41083 13.9382 8.39867 14.345 8.2981 14.8431C8.21508 15.2541 8.06486 15.6996 7.93579 16.0658C7.86975 16.2532 7.81048 16.4156 7.76392 16.5531C7.71879 16.6864 7.6954 16.7697 7.68775 16.8119C7.68894 16.8155 7.69366 16.8424 7.72193 16.9027C7.76013 16.9841 7.81291 17.0712 7.87915 17.1888C7.93989 17.2967 8.01012 17.4271 8.05689 17.5619C8.10333 17.6959 8.13824 17.8664 8.09302 18.0433C8.04436 18.2335 7.96184 18.4499 7.73658 18.515C7.71567 18.521 7.69522 18.5223 7.67798 18.5248C7.67696 18.5265 7.67514 18.5278 7.67408 18.5297C7.64923 18.5723 7.60837 18.6474 7.55982 18.7172C7.46146 18.8585 7.28093 19.0572 6.97681 19.0736C6.69512 19.0885 6.48791 18.95 6.34888 18.8138C6.22221 18.6897 6.10675 18.5172 6.05298 18.4476C5.95525 18.3209 5.93438 18.153 5.92701 18.0414C5.91857 17.9129 5.92418 17.7658 5.93384 17.6224C5.95451 17.3162 5.99048 17.0256 5.99048 16.7787C5.99041 16.5296 5.94877 15.8584 5.91138 15.1683C5.89292 14.8276 5.87523 14.4854 5.86548 14.1986C5.856 13.9195 5.85318 13.6717 5.86646 13.5306C5.88964 13.2852 5.98575 13.0509 6.08423 12.8685C6.15379 12.7397 6.2329 12.6276 6.30005 12.5394C6.2899 12.3338 6.28059 11.9707 6.30396 11.5209C6.33268 10.9698 6.55822 10.4307 6.7024 10.1566C6.69071 9.92285 6.71681 9.48054 6.85572 8.83435C6.97692 8.27084 7.31434 7.8521 7.6604 7.55896C8.00586 7.26637 8.37641 7.0849 8.59986 6.99255C8.72165 6.94225 8.82519 6.91393 8.92115 6.90271C9.017 6.89158 9.09408 6.89916 9.1438 6.90369C9.19223 6.90809 9.21482 6.90892 9.24341 6.90564C9.27246 6.90227 9.32205 6.89224 9.40552 6.85779C9.53579 6.80389 9.76666 6.65892 10.0227 6.48083C10.2155 6.34671 10.4068 6.20326 10.553 6.09119C10.5552 5.86878 10.5566 5.56752 10.553 5.42126C10.549 5.41637 10.5445 5.4096 10.5383 5.40271C10.518 5.37988 10.4923 5.35426 10.4592 5.32068C10.4277 5.28865 10.3898 5.24951 10.3518 5.20837C10.2028 5.04718 9.99829 4.78859 9.99829 4.42419C9.99839 4.16408 10.079 3.95839 10.221 3.81775C10.2667 3.77243 10.3179 3.73888 10.3684 3.7113C10.3781 3.56329 10.3927 3.3878 10.4211 3.21326C10.463 2.95653 10.5362 2.64537 10.678 2.43689C10.8428 2.19462 11.1344 2.07808 11.3586 2.01794C11.5972 1.95408 11.8423 1.93302 12.0002 1.93298ZM12.0002 2.53259C11.8846 2.53264 11.6929 2.54912 11.5139 2.59705C11.3207 2.64885 11.2119 2.71913 11.1741 2.77478C11.1131 2.86465 11.054 3.05789 11.0129 3.30994C10.9741 3.54807 10.9579 3.79096 10.9553 3.93787L10.9504 4.23279H10.6555C10.6679 4.23279 10.6564 4.23104 10.6428 4.24451C10.6346 4.25281 10.598 4.29462 10.5979 4.42419C10.5979 4.55146 10.6664 4.665 10.7922 4.80115C10.8228 4.83415 10.8538 4.86611 10.887 4.89978C10.9184 4.93171 10.9547 4.96755 10.9866 5.0033C11.0179 5.0385 11.0542 5.08352 11.0842 5.13416C11.1139 5.18434 11.1483 5.25858 11.1526 5.34998C11.1602 5.51839 11.1555 6.02211 11.1526 6.24451L11.1506 6.38806L11.0383 6.47595C10.881 6.59966 10.6247 6.79367 10.3655 6.974C10.1146 7.14847 9.83287 7.33035 9.63404 7.41248C9.51212 7.4628 9.40879 7.49117 9.31275 7.50232C9.21664 7.51343 9.13973 7.50586 9.09009 7.50134C9.04169 7.49694 9.01922 7.49508 8.99048 7.49841C8.96138 7.50185 8.91224 7.51206 8.82935 7.54626C8.64119 7.62401 8.33066 7.77765 8.0481 8.01697C7.76602 8.25595 7.52727 8.56715 7.44263 8.96033C7.28039 9.71512 7.29102 10.1061 7.30201 10.1713L7.31958 10.2787L7.2649 10.3734C7.15652 10.5585 6.92791 11.0662 6.90259 11.5521C6.87459 12.0911 6.8911 12.4891 6.90161 12.6107L6.91333 12.7386L6.82837 12.8353C6.77761 12.8931 6.69024 13.0099 6.61255 13.1537C6.53373 13.2997 6.47585 13.4526 6.46314 13.5863C6.4541 13.6821 6.45533 13.8907 6.46509 14.1781C6.47463 14.4585 6.49158 14.796 6.51001 15.1361C6.54636 15.8069 6.59003 16.508 6.59009 16.7787C6.59009 17.0505 6.54984 17.4052 6.53247 17.6625C6.52316 17.8005 6.5199 17.9152 6.52564 18.0023C6.53252 18.1064 6.5495 18.1088 6.52759 18.0804C6.62579 18.2075 6.68116 18.2992 6.7688 18.3851C6.84389 18.4586 6.896 18.4774 6.94458 18.475C6.9714 18.4735 7.00628 18.4611 7.06665 18.3744C7.0974 18.3302 7.12239 18.2864 7.1565 18.2279C7.179 18.1893 7.2309 18.0961 7.30591 18.0336C7.3482 17.9984 7.39497 17.9735 7.44263 17.9574C7.46057 17.9514 7.47859 17.9498 7.49439 17.9467C7.4988 17.9325 7.50563 17.9158 7.51099 17.8949C7.51491 17.8795 7.51738 17.8397 7.48951 17.7592C7.46184 17.6794 7.41529 17.5886 7.35572 17.4828C7.30158 17.3867 7.22959 17.2654 7.17896 17.1576C7.13207 17.0577 7.06869 16.9013 7.09204 16.7367C7.10671 16.6338 7.15077 16.4959 7.19654 16.3607C7.24457 16.2189 7.30729 16.0455 7.37036 15.8666C7.49955 15.5001 7.63638 15.0896 7.71021 14.724C7.8299 14.1312 7.80343 13.7165 7.78443 13.6127L7.74927 13.4213L7.90943 13.3109C8.0028 13.2469 8.27769 12.9957 8.43775 12.6136C8.61626 12.1875 8.82722 11.5174 8.91138 11.2328L9.16431 10.3793L9.47974 11.2113C9.64421 11.6447 9.94668 12.7486 9.81763 13.7103C9.66664 14.8352 9.53782 15.4129 9.38697 16.0541C9.3052 16.4016 9.13197 16.7415 9.01197 17.0365C8.88539 17.3477 8.78137 17.681 8.77466 18.1117C8.75999 19.0583 8.98819 20.8847 9.00611 21.1244C9.01278 21.2144 9.01384 21.3438 9.01294 21.4672H10.3586C10.4542 21.3078 10.5756 21.0981 10.6887 20.8773C10.8418 20.5785 10.9708 20.2832 11.0217 20.0746C11.1424 19.5799 11.4325 18.5034 11.5618 18.0287L11.5842 17.9457L11.6477 17.8871L11.7961 17.7484L12.0002 17.9691L12.2043 17.7484L12.3528 17.8871L12.4163 17.9457L12.4387 18.0287C12.5679 18.5033 12.8581 19.5798 12.9788 20.0746C13.0296 20.2831 13.1588 20.5786 13.3118 20.8773C13.4248 21.098 13.5463 21.3078 13.6418 21.4672H14.9876C14.9867 21.3438 14.9877 21.2144 14.9944 21.1244C15.0123 20.8849 15.2405 19.0584 15.2258 18.1117C15.2191 17.681 15.1151 17.3477 14.9885 17.0365C14.8685 16.7416 14.6953 16.4015 14.6135 16.0541C14.4627 15.413 14.3338 14.8351 14.1829 13.7103C14.0539 12.7486 14.3563 11.6447 14.5208 11.2113L14.8362 10.3793L15.0891 11.2328C15.1733 11.5173 15.3843 12.1875 15.5627 12.6136C15.7226 12.9952 15.9973 13.2465 16.0911 13.3109L16.2512 13.4213L16.2161 13.6127C16.1971 13.7165 16.1706 14.1313 16.2903 14.724C16.3641 15.0895 16.501 15.5001 16.6301 15.8666C16.6932 16.0454 16.7559 16.2189 16.804 16.3607C16.8497 16.4958 16.8938 16.6338 16.9085 16.7367C16.9318 16.9014 16.8684 17.0577 16.8215 17.1576C16.7708 17.2655 16.6989 17.3867 16.6448 17.4828C16.5852 17.5887 16.5386 17.6793 16.511 17.7592C16.4832 17.8394 16.4856 17.8793 16.4895 17.8949C16.4948 17.9157 16.5017 17.9326 16.5061 17.9467C16.5219 17.9498 16.5399 17.9515 16.5579 17.9574C16.6055 17.9734 16.6523 17.9984 16.6946 18.0336C16.7695 18.096 16.8214 18.1891 16.844 18.2279C16.878 18.2863 16.9032 18.3303 16.9338 18.3744C16.9939 18.4607 17.0291 18.4734 17.0559 18.475C17.1046 18.4775 17.1565 18.4587 17.2317 18.3851C17.3195 18.2992 17.3746 18.2076 17.4729 18.0804C17.4511 18.1087 17.468 18.1063 17.4749 18.0023C17.4806 17.9152 17.4773 17.8005 17.468 17.6625C17.4507 17.4052 17.4104 17.0505 17.4104 16.7787C17.4105 16.508 17.4541 15.8069 17.4905 15.1361C17.5089 14.7959 17.5259 14.4585 17.5354 14.1781C17.5452 13.8907 17.5464 13.6821 17.5374 13.5863C17.5246 13.4526 17.4668 13.2997 17.3879 13.1537C17.3102 13.0099 17.2228 12.893 17.1721 12.8353L17.0872 12.7386L17.0989 12.6107C17.1094 12.4892 17.1259 12.0912 17.0979 11.5521C17.0726 11.0661 16.844 10.5584 16.7356 10.3734L16.6809 10.2787L16.6985 10.1713C16.7095 10.1065 16.7202 9.71566 16.5579 8.96033C16.4732 8.56716 16.2345 8.25593 15.9524 8.01697C15.6698 7.77769 15.3592 7.62394 15.1711 7.54626C15.0881 7.51205 15.039 7.5018 15.01 7.49841C14.9814 7.49514 14.9589 7.49694 14.9104 7.50134C14.8607 7.50587 14.7838 7.51346 14.6877 7.50232C14.5918 7.49113 14.4883 7.4628 14.3665 7.41248C14.1676 7.33024 13.8857 7.14838 13.635 6.974C13.3758 6.79368 13.1194 6.5996 12.9622 6.47595L12.8499 6.38806L12.8479 6.24451C12.845 6.0221 12.8402 5.51839 12.8479 5.34998C12.8521 5.25859 12.8865 5.18435 12.9163 5.13416C12.9463 5.08344 12.9825 5.03856 13.0139 5.0033C13.0458 4.96749 13.082 4.93178 13.1135 4.89978C13.1467 4.86603 13.1777 4.83421 13.2083 4.80115C13.3343 4.66486 13.4026 4.55156 13.4026 4.42419C13.4025 4.29399 13.3656 4.25252 13.3577 4.24451C13.3444 4.23153 13.3334 4.23275 13.345 4.23279H13.0501L13.0452 3.93787C13.0426 3.79096 13.0264 3.54806 12.9876 3.30994C12.9465 3.0579 12.8874 2.86461 12.8264 2.77478C12.7883 2.71915 12.6796 2.64876 12.4866 2.59705C12.3075 2.54916 12.1158 2.5326 12.0002 2.53259Z" fill="#6C6B6B"/>
<path d="M12.2773 9.92699V8.08699C12.2773 8.07259 12.2895 7.94316 12.794 7.70128C13.1466 7.53226 13.5162 7.56986 13.758 7.64224C13.9163 7.68964 14.0306 7.81599 14.1129 7.95933L14.5973 8.8029C14.7017 8.98474 14.7566 9.19076 14.7566 9.40043V9.46573C14.7566 9.60957 14.7244 9.75476 14.636 9.86821C14.378 10.1991 13.9998 10.3429 13.3313 10.4021C12.5503 10.4712 12.3033 10.1142 12.2773 9.92699Z" fill="#EC5D18"/>
<path d="M11.7236 9.92699V8.08699C11.7236 8.07259 11.7114 7.94316 11.207 7.70128C10.8544 7.53226 10.4848 7.56986 10.243 7.64224C10.0846 7.68964 9.9704 7.81599 9.88809 7.95933L9.40372 8.8029C9.29931 8.98474 9.24437 9.19076 9.24437 9.40043V9.46573C9.24437 9.60957 9.27656 9.75476 9.365 9.86821C9.62293 10.1991 10.0011 10.3429 10.6697 10.4021C11.4506 10.4712 11.6977 10.1142 11.7236 9.92699Z" fill="#EC5D18"/>
<path d="M15.8636 8.28871C15.6772 8.03353 15.2163 7.8685 14.8755 7.78567C14.7775 7.76187 14.7054 7.86532 14.7576 7.95156C14.8283 8.06831 14.9095 8.19831 14.9726 8.28871C15.1096 8.48519 15.1873 8.95126 15.3381 9.18886C15.4883 9.42555 16.0421 9.82547 16.1276 9.88726L16.1286 9.88796C16.2108 9.94736 16.3068 9.8971 16.3296 9.8514C16.3525 9.80571 16.3205 9.33965 16.2657 9.07463C16.2108 8.80962 16.1606 8.69538 15.8636 8.28871Z" fill="#EC5D18"/>
<path d="M8.13739 8.28871C8.32375 8.03353 8.78468 7.8685 9.12547 7.78567C9.22343 7.76187 9.29554 7.86532 9.24334 7.95156C9.17269 8.06831 9.09148 8.19831 9.02841 8.28871C8.89133 8.48519 8.81365 8.95126 8.66287 9.18886C8.51266 9.42555 7.95891 9.82547 7.87336 9.88726L7.87239 9.88796C7.79014 9.94736 7.69419 9.8971 7.67134 9.8514C7.64849 9.80571 7.68048 9.33965 7.73531 9.07463C7.79014 8.80962 7.8404 8.69538 8.13739 8.28871Z" fill="#EC5D18"/>
<path d="M16.2956 10.9329C16.1547 10.5853 15.7358 10.3066 15.544 10.2107C15.5008 10.1954 15.4086 10.1787 15.3849 10.2339C15.3553 10.3029 15.3385 10.287 15.3679 10.6511C15.3972 11.0151 15.4677 11.4144 15.6321 11.9429C15.7965 12.4713 16.3367 13.0291 16.4248 13.0761C16.5129 13.1231 16.5716 13.1466 16.6186 13.0761C16.6655 13.0057 16.7184 12.3245 16.6714 11.9429C16.6244 11.5612 16.4718 11.3674 16.2956 10.9329Z" fill="#EC5D18"/>
<path d="M7.70536 10.9329C7.84628 10.5853 8.26515 10.3066 8.45698 10.2107C8.50015 10.1954 8.59242 10.1787 8.61608 10.2339C8.64565 10.3029 8.66248 10.287 8.63312 10.6511C8.60377 11.0151 8.5333 11.4144 8.36889 11.9429C8.20448 12.4713 7.66427 13.0291 7.57619 13.0761C7.48812 13.1231 7.4294 13.1466 7.38242 13.0761C7.33545 13.0057 7.2826 12.3245 7.32958 11.9429C7.37655 11.5612 7.52922 11.3674 7.70536 10.9329Z" fill="#EC5D18"/>
<path d="M12.2432 11.4919V11.0104C12.2432 10.9152 12.26 10.7959 12.3518 10.7708C12.3598 10.7686 12.3679 10.7678 12.3757 10.7686C12.4394 10.7757 12.6427 10.8479 12.8125 10.888C12.9822 10.9281 13.6229 10.8958 13.656 10.9502C13.7007 11.0236 13.6684 11.3741 13.6684 11.492C13.6684 11.6099 13.4839 11.7932 13.3683 11.7932H12.5286C12.4679 11.7932 12.4167 11.7811 12.3749 11.7636C12.2728 11.7209 12.2432 11.6026 12.2432 11.4919Z" fill="#EC5D18"/>
<path d="M13.0965 13.6259H12.4893C12.3567 13.6259 12.2495 13.7333 12.2495 13.8659V14.9483C12.2495 15.0987 12.3881 15.2133 12.5255 15.152C12.7389 15.0569 12.915 14.9042 13.0403 14.7128C13.2162 14.4441 13.3212 14.0126 13.3364 13.8885V13.8659C13.3364 13.7333 13.2291 13.6259 13.0965 13.6259Z" fill="#EC5D18"/>
<path d="M11.7578 11.4919V11.0104C11.7578 10.9152 11.7409 10.7959 11.6492 10.7708C11.6411 10.7686 11.6331 10.7678 11.6252 10.7686C11.5616 10.7757 11.3583 10.8479 11.1885 10.888C11.0188 10.9281 10.3781 10.8958 10.345 10.9502C10.3003 11.0236 10.3326 11.3741 10.3326 11.492C10.3326 11.6099 10.5171 11.7932 10.6326 11.7932H11.4724C11.5331 11.7932 11.5843 11.7811 11.6261 11.7636C11.7282 11.7209 11.7578 11.6026 11.7578 11.4919Z" fill="#EC5D18"/>
<path d="M10.9045 13.6259H11.5117C11.6442 13.6259 11.7515 13.7333 11.7515 13.8659V14.9483C11.7515 15.0987 11.6129 15.2133 11.4755 15.152C11.2621 15.0569 11.086 14.9042 10.9607 14.7128C10.7848 14.4441 10.6798 14.0126 10.6645 13.8885V13.8659C10.6645 13.7333 10.7719 13.6259 10.9045 13.6259Z" fill="#EC5D18"/>
<path d="M12.2402 12.9509V12.4572C12.2402 12.3708 12.2918 12.2928 12.3713 12.259C12.3975 12.2479 12.4254 12.2421 12.4538 12.2419C12.6904 12.2407 13.0863 12.2417 13.1991 12.2421C13.2198 12.2421 13.2401 12.2449 13.2601 12.2502L13.323 12.2671C13.4279 12.2952 13.5009 12.3903 13.5009 12.4989V12.8227C13.5009 12.8864 13.4756 12.9474 13.4306 12.9924L13.3517 13.0713C13.3064 13.1166 13.2449 13.1419 13.1808 13.1416C12.8631 13.1401 12.3727 13.1387 12.3598 13.1421C12.3567 13.1429 12.351 13.1414 12.3436 13.1382C12.2732 13.1075 12.2402 13.0277 12.2402 12.9509Z" fill="#EC5D18"/>
<path d="M11.7607 12.9509V12.4572C11.7607 12.3708 11.7091 12.2928 11.6297 12.259C11.6035 12.2479 11.5756 12.2421 11.5471 12.2419C11.3105 12.2407 10.9147 12.2417 10.8018 12.2421C10.7811 12.2421 10.7609 12.2449 10.7409 12.2502L10.678 12.2671C10.5731 12.2952 10.5001 12.3903 10.5001 12.4989V12.8227C10.5001 12.8864 10.5254 12.9474 10.5704 12.9924L10.6493 13.0713C10.6946 13.1166 10.756 13.1419 10.8201 13.1416C11.1379 13.1401 11.6283 13.1387 11.6412 13.1421C11.6443 13.1429 11.65 13.1414 11.6574 13.1382C11.7278 13.1075 11.7607 13.0277 11.7607 12.9509Z" fill="#EC5D18"/>
<path d="M14.6615 17.6341C14.6421 17.0239 14.2155 16.0968 13.9261 15.5619C13.8799 15.4764 13.7577 15.4822 13.7181 15.5709C13.5573 15.931 13.3312 16.4554 13.2586 16.6914C13.1477 17.0518 13.0589 17.4123 13.0201 18.0223C12.9813 18.6322 13.2031 19.3365 13.3695 19.9465C13.4752 20.3344 13.7515 20.7059 13.9532 20.9274C14.0135 20.9936 14.1184 20.9644 14.14 20.8775C14.1931 20.664 14.257 20.3716 14.2734 20.1683C14.3011 19.8245 14.6893 18.5047 14.6615 17.6341Z" fill="#EC5D18"/>
<path d="M9.33944 17.6341C9.35886 17.0239 9.78547 16.0968 10.0749 15.5619C10.1211 15.4764 10.2433 15.4822 10.2829 15.5709C10.4437 15.931 10.6698 16.4554 10.7424 16.6914C10.8533 17.0518 10.9421 17.4123 10.9809 18.0223C11.0197 18.6322 10.7979 19.3365 10.6315 19.9465C10.5257 20.3344 10.2495 20.7059 10.0478 20.9274C9.98745 20.9936 9.88256 20.9644 9.86094 20.8775C9.80785 20.664 9.74402 20.3716 9.72763 20.1683C9.6999 19.8245 9.31172 18.5047 9.33944 17.6341Z" fill="#EC5D18"/>
</svg>
