<svg width="24" height="24" viewBox="0 0 24 24" fill="none" xmlns="http://www.w3.org/2000/svg">
<path d="M12.8756 12.3878C12.8816 12.5839 12.8846 12.7711 12.8846 12.9485C12.8846 13.917 12.5052 14.7436 12.4599 16.8276C12.4163 18.831 13.1543 20.8379 13.572 21.6861C13.5993 21.7415 13.6643 21.7654 13.7221 21.7438C13.9926 21.6429 14.748 21.3785 15.2913 21.3579C15.8207 21.3379 16.7445 21.6124 17.114 21.7303C17.1924 21.7554 17.2733 21.6969 17.2733 21.6145V18.1584C17.8679 16.7426 19.169 15.4693 19.3403 10.5984C19.4313 8.00887 18.4494 4.11441 17.8314 2.35299C17.8065 2.28195 17.724 2.25246 17.6594 2.29117C17.2078 2.56183 15.6586 3.49679 15.3771 3.75419C15.0468 4.05621 13.819 5.50178 13.5925 6.18133C13.3962 6.77002 12.6617 6.94789 12.1804 6.97266C12.0894 6.97734 12.025 7.07436 12.06 7.15848C12.2008 7.49758 12.4872 8.28143 12.618 9.31665C12.7626 10.4616 12.8488 11.5131 12.8756 12.3878ZM12.8756 12.3878C13.4721 11.5823 14.4413 9.77952 14.873 8.66046C15.2551 7.66978 15.6457 5.39919 15.9281 4.42401" stroke="#6A6765" stroke-width="0.6" stroke-linecap="round"/>
<path d="M11.0815 12.3878C11.0755 12.5839 11.0725 12.7711 11.0725 12.9485C11.0725 13.917 11.4519 14.7436 11.4972 16.8276C11.5407 18.831 10.8027 20.8379 10.385 21.6861C10.3577 21.7415 10.2928 21.7654 10.2349 21.7438C9.96439 21.6429 9.20899 21.3785 8.66572 21.3579C8.13632 21.3379 7.21254 21.6124 6.84308 21.7303C6.76459 21.7554 6.68371 21.6969 6.68371 21.6145V18.1584C6.0891 16.7426 4.78802 15.4693 4.61674 10.5984C4.52569 8.00887 5.50767 4.11441 6.12562 2.35299C6.15055 2.28195 6.23307 2.25246 6.29765 2.29117C6.74927 2.56183 8.29841 3.49679 8.57994 3.75419C8.91028 4.05621 10.1381 5.50178 10.3646 6.18133C10.5608 6.77002 11.2953 6.94789 11.7766 6.97266C11.8676 6.97734 11.932 7.07436 11.8971 7.15848C11.7562 7.49758 11.4698 8.28143 11.339 9.31665C11.1944 10.4616 11.1082 11.5131 11.0815 12.3878ZM11.0815 12.3878C10.4849 11.5823 9.51568 9.77952 9.08405 8.66046C8.70193 7.66978 8.31136 5.39919 8.02893 4.42401" stroke="#6A6765" stroke-width="0.6" stroke-linecap="round"/>
<path d="M17.618 10.4426C18.0984 8.16477 17.3154 6.68765 16.729 6.11861C16.6243 6.01694 16.4608 6.06195 16.4009 6.19512C15.7332 7.68101 14.612 10.5987 14.5552 11.6978C14.4799 13.1539 14.9317 13.3799 15.3083 15.1623C15.4788 15.9692 15.4322 17.034 15.352 17.8656C15.338 18.0107 15.5333 18.0551 15.576 17.9157C16.1942 15.8959 17.186 12.4904 17.618 10.4426Z" fill="#EC5D18"/>
<path d="M6.40451 10.4312C5.92404 8.15342 6.70706 6.6763 7.29342 6.10726C7.39818 6.00558 7.56168 6.0506 7.62152 6.18377C8.28922 7.66965 9.41043 10.5874 9.46728 11.6865C9.5426 13.1426 9.09073 13.3685 8.71415 15.151C8.54368 15.9579 8.59031 17.0226 8.6705 17.8542C8.6845 17.9994 8.48918 18.0437 8.4465 17.9043C7.82825 15.8845 6.83647 12.4791 6.40451 10.4312Z" fill="#EC5D18"/>
<path d="M18.3739 13.9672C18.9914 11.7813 18.4562 9.42358 18.1114 8.51794C18.1475 9.2795 18.096 11.2318 17.602 12.9483C17.1564 14.497 16.5319 16.0299 16.2327 16.7721C16.176 16.9126 16.1475 17.0625 16.1475 17.214V17.8805C16.1475 17.988 16.2746 18.0382 16.3436 17.9557C16.8759 17.3198 17.8321 15.8848 18.3739 13.9672Z" fill="#EC5D18"/>
<path d="M5.64859 13.9557C5.03111 11.7698 5.56625 9.4121 5.91101 8.50647C5.87499 9.26802 5.92645 11.2203 6.42043 12.9369C6.86609 14.4856 7.49051 16.0184 7.78978 16.7606C7.84643 16.9012 7.875 17.051 7.875 17.2025V17.869C7.875 17.9765 7.74788 18.0267 7.67884 17.9443C7.14658 17.3083 6.19031 15.8733 5.64859 13.9557Z" fill="#EC5D18"/>
<path d="M14.8266 15.1008C14.7373 14.1335 14.4077 13.0985 14.1794 12.5066C14.1399 12.4041 13.998 12.4097 13.9635 12.514C13.8378 12.8941 13.6414 13.4921 13.4408 14.1141C13.1747 14.9389 13.0712 15.9138 13.0527 16.2981C13.0527 17.1296 13.27 18.7815 14.1392 18.7372C15.2257 18.6818 14.9596 16.542 14.8266 15.1008Z" fill="#EC5D18"/>
<path d="M9.19586 15.0893C9.28515 14.122 9.61478 13.087 9.84302 12.4951C9.88254 12.3926 10.0245 12.3982 10.0589 12.5025C10.1846 12.8826 10.3811 13.4806 10.5817 14.1026C10.8478 14.9274 10.9513 15.9023 10.9697 16.2867C10.9697 17.1182 10.7524 18.7701 9.88324 18.7257C8.79675 18.6703 9.06283 16.5306 9.19586 15.0893Z" fill="#EC5D18"/>
</svg>
