<svg width="30" height="30" viewBox="0 0 30 30" fill="none" xmlns="http://www.w3.org/2000/svg">
<path d="M16.094 15.4847C16.1015 15.7298 16.1052 15.9639 16.1052 16.1856C16.1052 17.3963 15.631 18.4295 15.5743 21.0345C15.5199 23.5388 16.4424 26.0474 16.9645 27.1076C16.9986 27.1768 17.0798 27.2068 17.1522 27.1798C17.4903 27.0536 18.4346 26.7231 19.1136 26.6974C19.7754 26.6723 20.9301 27.0156 21.392 27.1629C21.4901 27.1942 21.5912 27.1211 21.5912 27.0181V22.698C22.3344 20.9283 23.9608 19.3366 24.1749 13.248C24.2887 10.0111 23.0612 5.14302 22.2888 2.94124C22.2576 2.85244 22.1545 2.81558 22.0737 2.86396C21.5092 3.20228 19.5728 4.37098 19.2209 4.69273C18.808 5.07026 17.2732 6.87722 16.9901 7.72667C16.7448 8.46252 15.8266 8.68486 15.225 8.71582C15.1113 8.72167 15.0308 8.84295 15.0745 8.9481C15.2505 9.37198 15.6085 10.3518 15.772 11.6458C15.9528 13.077 16.0606 14.3914 16.094 15.4847ZM16.094 15.4847C16.8396 14.4779 18.0512 12.2244 18.5907 10.8256C19.0684 9.58723 19.5566 6.74899 19.9096 5.53001" stroke="#6A6765" stroke-width="0.75" stroke-linecap="round"/>
<path d="M13.8513 15.4847C13.8438 15.7298 13.8401 15.9639 13.8401 16.1856C13.8401 17.3963 14.3144 18.4295 14.371 21.0345C14.4254 23.5388 13.5029 26.0474 12.9808 27.1076C12.9467 27.1768 12.8655 27.2068 12.7932 27.1798C12.455 27.0536 11.5107 26.7231 10.8317 26.6974C10.1699 26.6723 9.01519 27.0156 8.55336 27.1629C8.45525 27.1942 8.35414 27.1211 8.35414 27.0181V22.698C7.61089 20.9283 5.98454 19.3366 5.77044 13.248C5.65662 10.0111 6.8841 5.14302 7.65654 2.94124C7.6877 2.85244 7.79085 2.81558 7.87157 2.86396C8.4361 3.20228 10.3725 4.37098 10.7244 4.69273C11.1374 5.07026 12.6721 6.87722 12.9552 7.72667C13.2005 8.46252 14.1187 8.68486 14.7203 8.71582C14.834 8.72167 14.9145 8.84295 14.8708 8.9481C14.6948 9.37198 14.3368 10.3518 14.1733 11.6458C13.9925 13.077 13.8848 14.3914 13.8513 15.4847ZM13.8513 15.4847C13.1057 14.4779 11.8941 12.2244 11.3546 10.8256C10.8769 9.58723 10.3887 6.74899 10.0357 5.53001" stroke="#6A6765" stroke-width="0.75" stroke-linecap="round"/>
<path d="M22.0224 13.0532C22.623 10.206 21.6442 8.35956 20.9113 7.64827C20.7803 7.52117 20.576 7.57744 20.5012 7.7439C19.6665 9.60126 18.265 13.2484 18.194 14.6223C18.0998 16.4424 18.6647 16.7248 19.1354 18.9529C19.3485 19.9615 19.2902 21.2925 19.1899 22.332C19.1725 22.5134 19.4166 22.5689 19.4699 22.3946C20.2428 19.8699 21.4825 15.613 22.0224 13.0532Z" fill="#EC5D18"/>
<path d="M8.0049 13.0389C7.40432 10.1917 8.3831 8.34528 9.11604 7.63398C9.247 7.50689 9.45137 7.56316 9.52617 7.72962C10.3608 9.58698 11.7623 13.2341 11.8334 14.608C11.9275 16.4281 11.3627 16.7106 10.892 18.9386C10.6789 19.9472 10.7371 21.2782 10.8374 22.3177C10.8549 22.4991 10.6107 22.5546 10.5574 22.3803C9.78458 19.8556 8.54485 15.5988 8.0049 13.0389Z" fill="#EC5D18"/>
<path d="M22.9666 17.4589C23.7385 14.7265 23.0695 11.7794 22.6386 10.6473C22.6836 11.5993 22.6193 14.0396 22.0018 16.1853C21.4447 18.1212 20.6642 20.0372 20.2901 20.965C20.2193 21.1407 20.1836 21.328 20.1836 21.5174V22.3505C20.1836 22.4849 20.3425 22.5477 20.4288 22.4446C21.0941 21.6496 22.2895 19.8559 22.9666 17.4589Z" fill="#EC5D18"/>
<path d="M7.06074 17.4447C6.28888 14.7124 6.95782 11.7652 7.38877 10.6332C7.34374 11.5851 7.40806 14.0254 8.02553 16.1712C8.58262 18.107 9.36314 20.0231 9.73722 20.9509C9.80804 21.1265 9.84375 21.3138 9.84375 21.5032V22.3363C9.84375 22.4708 9.68484 22.5335 9.59855 22.4304C8.93322 21.6355 7.73789 19.8418 7.06074 17.4447Z" fill="#EC5D18"/>
<path d="M18.5328 18.876C18.4212 17.6668 18.0091 16.3731 17.7238 15.6332C17.6744 15.5051 17.497 15.5121 17.4539 15.6425C17.2968 16.1176 17.0513 16.8651 16.8005 17.6426C16.4679 18.6737 16.3385 19.8923 16.3154 20.3727C16.3154 21.412 16.5871 23.4769 17.6735 23.4215C19.0317 23.3522 18.6991 20.6776 18.5328 18.876Z" fill="#EC5D18"/>
<path d="M11.4946 18.8617C11.6062 17.6525 12.0182 16.3588 12.3035 15.6189C12.3529 15.4908 12.5303 15.4978 12.5734 15.6282C12.7305 16.1034 12.9761 16.8509 13.2269 17.6283C13.5595 18.6594 13.6888 19.878 13.7119 20.3584C13.7119 21.3978 13.4403 23.4627 12.3538 23.4072C10.9957 23.3379 11.3283 20.6633 11.4946 18.8617Z" fill="#EC5D18"/>
</svg>
